<svg width="43" height="58" viewBox="0 0 43 58" fill="none" xmlns="http://www.w3.org/2000/svg">
<ellipse cx="16.5581" cy="52.6327" rx="14.193" ry="5.32237" fill="black" fill-opacity="0.2"/>
<path style="mix-blend-mode:screen" opacity="0.32" d="M38.5878 16.6099C38.5642 16.8601 38.5127 17.1069 38.4343 17.3456C38.2797 17.543 38.1039 17.7227 37.91 17.8815C38.1602 17.9051 38.4069 17.9566 38.6457 18.035C38.8431 18.1895 39.0228 18.3654 39.1816 18.5593C39.2052 18.3091 39.2567 18.0623 39.3351 17.8236C39.4896 17.6262 39.6654 17.4465 39.8594 17.2877C39.6092 17.2641 39.3624 17.2126 39.1236 17.1342C38.9263 16.9796 38.7466 16.8038 38.5878 16.6099Z" fill="url(#paint0_radial_1_4156)"/>
<path style="mix-blend-mode:screen" opacity="0.5" d="M42.2811 23.3249C42.1712 23.3604 42.0533 23.3622 41.9424 23.3301C41.8315 23.298 41.7327 23.2336 41.6587 23.145C41.5847 23.0564 41.5388 22.9477 41.527 22.8328C41.5152 22.718 41.538 22.6022 41.5924 22.5004C41.6469 22.3986 41.7305 22.3154 41.8325 22.2614C41.9346 22.2075 42.0505 22.1853 42.1652 22.1976C42.28 22.2099 42.3885 22.2563 42.4768 22.3307C42.565 22.4051 42.629 22.5042 42.6606 22.6153C42.7016 22.7597 42.685 22.9144 42.6142 23.0467C42.5434 23.1791 42.424 23.2789 42.2811 23.3249Z" fill="url(#paint1_radial_1_4156)"/>
<path style="mix-blend-mode:screen" opacity="0.5" d="M39.9547 10.9284C39.8684 10.8221 39.7713 10.725 39.665 10.6387C39.5323 10.5958 39.3954 10.5677 39.2566 10.5547C39.3632 10.4688 39.4603 10.3717 39.5462 10.265C39.5894 10.1325 39.6176 9.99548 39.6302 9.85663C39.7161 9.96334 39.8132 10.0605 39.9199 10.1463C40.0525 10.1892 40.1895 10.2173 40.3283 10.2303C40.221 10.3154 40.1238 10.4126 40.0387 10.5199C39.9962 10.6527 39.968 10.7896 39.9547 10.9284Z" fill="url(#paint2_radial_1_4156)"/>
<path style="mix-blend-mode:screen" opacity="0.32" d="M12.2726 8.15415C12.3438 7.91267 12.4409 7.67959 12.5623 7.45898C12.7508 7.29263 12.9567 7.14696 13.1763 7.02449C12.9347 6.9538 12.7015 6.85666 12.4812 6.73483C12.3141 6.54678 12.1684 6.34084 12.0467 6.12076C11.9756 6.36322 11.8785 6.59727 11.757 6.81883C11.5683 6.98419 11.3624 7.12888 11.1429 7.25042C11.3846 7.32112 11.6177 7.41826 11.8381 7.54008C12.0045 7.72866 12.1501 7.93453 12.2726 8.15415Z" fill="url(#paint3_radial_1_4156)"/>
<path d="M22.5831 21.5218C22.5831 21.5218 23.3101 26.2172 26.5514 27.9378C29.7927 29.6583 31.8463 29.1949 31.8463 29.1949C31.8463 29.1949 33.2338 27.4077 34.8877 28.6648C36.5417 29.9219 36.7416 30.5186 36.0145 32.1059C35.2875 33.6933 33.5003 34.4232 31.7131 32.7692C31.7131 32.7692 26.2878 34.1567 23.8924 32.3058C21.4969 30.4549 21.9487 29.6467 21.9487 29.6467L21.6417 33.9597C21.6417 33.9597 26.34 35.5471 27.6637 38.1279C28.9874 40.7088 24.3529 47.5881 24.3529 47.5881C24.3529 47.5881 27.3972 47.6548 28.2575 49.1117C29.1178 50.5687 28.7209 50.6991 26.6035 50.7657C24.4861 50.8323 20.848 50.169 19.9211 49.3174C18.9942 48.4658 22.6179 43.5966 22.0762 41.6675C21.5345 39.7384 19.0638 39.3184 17.152 38.9882C15.2403 38.658 13.9658 42.7537 12.8506 44.8103C11.7354 46.8669 10.2002 49.4101 10.2002 49.4101C10.2002 49.4101 13.4067 49.5694 14.1338 51.7534C14.8608 53.9374 7.16753 52.8165 5.97414 50.8844C4.78075 48.9524 8.12919 47.843 8.95182 34.0843C9.25885 28.9863 10.0786 27.5989 10.0786 27.5989C10.0786 27.5989 4.12323 25.1513 2.73287 22.0403C1.34251 18.9294 2.00583 17.2117 2.00583 17.2117C2.00583 17.2117 -0.244816 14.9611 0.0216713 12.7771C0.288155 10.5931 0.890644 13.1739 0.890644 13.1739C0.890644 13.1739 0.757401 10.3295 2.41135 9.53582C4.06529 8.74216 4.0653 13.3014 4.0653 13.3014C4.0653 13.3014 4.26516 12.0443 4.9922 12.1775C5.71923 12.3107 5.25578 15.2855 4.12322 16.5426C4.12322 16.5426 4.91689 21.4407 12.0627 21.7565C12.0627 21.7565 13.9803 19.6391 16.3642 19.7057C18.748 19.7723 22.5831 21.5218 22.5831 21.5218Z" fill="url(#paint4_radial_1_4156)"/>
<path style="mix-blend-mode:screen" d="M10.2361 22.0601C10.303 22.4562 10.3195 22.8591 10.2853 23.2593C9.01351 22.5439 7.80511 21.7211 6.67328 20.8001C7.55964 21.4837 9.06296 21.8747 10.2361 22.0601Z" fill="url(#paint5_radial_1_4156)"/>
<path style="mix-blend-mode:screen" d="M11.001 22.1651C11.5542 22.2376 11.9221 22.2607 11.9221 22.2607C12.2899 23.3325 11.589 23.7322 11.589 23.7322C11.3857 23.6984 11.1867 23.6431 10.9952 23.5671C11.0579 23.102 11.0599 22.6307 11.001 22.1651Z" fill="url(#paint6_radial_1_4156)"/>
<path style="mix-blend-mode:screen" d="M27.8712 29.2415C27.8712 29.2415 24.0304 27.6658 23.1846 24.6331C23.1846 24.6331 23.4916 29.2676 27.5642 30.6232C27.5127 30.1414 27.6206 29.6561 27.8712 29.2415Z" fill="url(#paint7_radial_1_4156)"/>
<path d="M19.8035 23.5327C19.9454 26.4293 19.5139 29.2621 18.865 32.0776C18.613 33.1667 16.9359 32.7061 17.1879 31.6141C17.8049 28.9435 18.2017 26.2786 18.0569 23.5327C18.0018 22.4146 19.7398 22.4175 19.7948 23.5327H19.8035Z" fill="url(#paint8_radial_1_4156)"/>
<path style="mix-blend-mode:color-burn" opacity="0.34" d="M17.1869 31.6129C17.8039 28.9422 18.2007 26.2774 18.0559 23.5314C18.0463 23.4308 18.057 23.3293 18.0873 23.2328C18.1175 23.1363 18.1668 23.0469 18.2321 22.9697C18.2974 22.8926 18.3774 22.8292 18.4675 22.7834C18.5576 22.7376 18.656 22.7103 18.7568 22.703C18.684 22.7799 18.6278 22.8711 18.5919 22.9708C18.556 23.0705 18.5412 23.1766 18.5483 23.2823C18.6844 26.0283 18.2876 28.6931 17.6793 31.3638C17.6492 31.5036 17.653 31.6485 17.6902 31.7866C17.7275 31.9247 17.7972 32.0519 17.8935 32.1576C17.9899 32.2632 18.1101 32.3444 18.2441 32.3942C18.3782 32.4441 18.5222 32.4612 18.6641 32.4442C18.1515 33.009 16.9725 32.5427 17.1869 31.6129Z" fill="url(#paint9_radial_1_4156)"/>
<path style="mix-blend-mode:multiply" opacity="0.25" d="M22.0365 30.8219C22.1571 30.2807 22.2317 29.7304 22.2595 29.1766C22.329 28.3482 22.3551 27.5198 22.3551 27.5198C22.3551 27.5198 22.3551 26.6885 22.3088 25.8572C22.2981 25.303 22.2409 24.7507 22.1379 24.2061C22.1002 24.2061 22.1205 25.0374 22.1147 25.863C22.1089 26.6885 22.0828 27.514 22.0828 27.514C22.0828 27.514 22.0828 28.3395 22.0655 29.165C22.0481 29.9906 21.9988 30.819 22.0365 30.8219ZM22.1234 29.5416C22.1987 29.0724 22.2769 28.6031 22.2769 28.6031L22.4855 27.6762C22.5335 27.3598 22.6141 27.0492 22.7259 26.7493C22.7457 27.0698 22.7282 27.3916 22.6737 27.7081C22.6187 28.1831 22.5434 28.6553 22.5434 28.6553C22.5434 28.6553 22.4391 29.1216 22.3117 29.5822C22.2438 29.8954 22.1398 30.1996 22.0017 30.4888C22.0099 30.1697 22.0506 29.8524 22.1234 29.5416ZM13.4539 25.6399C13.5466 25.3751 13.606 25.0997 13.6306 24.8202C13.6445 24.6942 13.6494 24.5674 13.6451 24.4407C13.6535 24.3154 13.6535 24.1896 13.6451 24.0642C13.621 23.7842 13.5637 23.508 13.4742 23.2415C13.3164 22.8562 13.1224 22.4867 12.8949 22.138C13.2318 22.4104 13.4906 22.7672 13.6451 23.172C13.7632 23.4498 13.844 23.742 13.8855 24.041C13.9059 24.1763 13.9175 24.3127 13.9203 24.4494C13.9172 24.5863 13.9046 24.7227 13.8826 24.8578C13.8401 25.1573 13.7573 25.4496 13.6364 25.7268C13.4795 26.1303 13.2187 26.485 12.8804 26.7551C13.1069 26.4026 13.2989 26.0292 13.4539 25.6399ZM10.9281 27.4561C11.0706 27.4152 11.2108 27.3668 11.3481 27.3112C11.4931 27.2772 11.6362 27.2356 11.7768 27.1867C11.9883 27.1114 12.1968 27.0129 12.2171 27.0448C12.2374 27.0766 12.0636 27.2359 11.8608 27.3605C11.7238 27.4423 11.5804 27.513 11.4321 27.5719C11.2771 27.6102 11.1192 27.6354 10.96 27.6472C10.7225 27.6646 10.485 27.6472 10.485 27.598C10.485 27.5488 10.7109 27.5198 10.9281 27.4561ZM15.0673 36.8612C15.1934 37.0564 15.3066 37.2596 15.4062 37.4695C15.4852 37.6882 15.55 37.9117 15.6003 38.1386C15.6666 38.363 15.6863 38.5986 15.6582 38.8309C15.5567 38.6259 15.4752 38.4115 15.4149 38.1908C15.2991 37.875 15.1542 37.5738 15.1542 37.5738C15.1542 37.5738 15.0413 37.2581 14.8993 36.9539C14.7826 36.7563 14.6856 36.5478 14.6097 36.3312C14.6444 36.308 14.8762 36.5687 15.0673 36.8612ZM17.7322 37.9677C18.1203 37.7128 18.4824 37.4232 18.4824 37.4232C18.4824 37.4232 18.8618 37.1596 19.2152 36.8439C19.4404 36.6253 19.6784 36.4203 19.9278 36.2298C19.7774 36.511 19.5817 36.7655 19.3485 36.9829C19.1282 37.2124 18.893 37.4272 18.6446 37.6259C18.3832 37.8083 18.1103 37.9737 17.8278 38.1213C17.5533 38.2836 17.2538 38.3991 16.9414 38.4631C17.1955 38.2833 17.4595 38.1179 17.7322 37.9677ZM22.5984 42.5009C22.5152 42.3117 22.4184 42.1287 22.3088 41.9534C22.2173 41.7692 22.1137 41.5911 21.9988 41.4205C21.8613 41.2594 21.7364 41.088 21.6252 40.9078C21.6484 40.8788 21.9148 41.0584 22.1466 41.2988C22.297 41.4598 22.4309 41.6354 22.5463 41.8231C22.6414 42.0219 22.7171 42.2295 22.7722 42.4429C22.8429 42.6517 22.8588 42.8751 22.8186 43.0918C22.7337 42.9003 22.663 42.7028 22.6071 42.5009H22.5984ZM19.3398 23.8469C19.7424 23.8614 20.1421 23.8469 20.1421 23.8469C20.1421 23.8469 20.539 23.8788 20.9387 23.873C21.2064 23.8484 21.4753 23.8407 21.7439 23.8498C21.4969 23.9723 21.2282 24.0451 20.9532 24.0642C20.6812 24.0985 20.4075 24.1169 20.1334 24.1192C20.1334 24.1192 19.7221 24.0931 19.3224 24.0294C19.0497 24.0056 18.7817 23.9442 18.5258 23.8469C18.7991 23.8146 19.0752 23.8146 19.3485 23.8469H19.3398ZM14.8356 22.9461C15.0449 23.044 15.2596 23.1301 15.4786 23.2039C15.6914 23.2975 15.9089 23.3797 16.1304 23.4501C16.3608 23.5005 16.5866 23.5702 16.8053 23.6587C16.566 23.7033 16.3199 23.6954 16.084 23.6355C15.8453 23.5943 15.61 23.5352 15.3802 23.4588C15.1583 23.3603 14.9443 23.2451 14.74 23.1141C14.5268 22.9963 14.3404 22.8356 14.1926 22.642C14.4148 22.7258 14.6298 22.8275 14.8356 22.9461ZM19.8351 36.0126C20.2145 35.6881 20.5534 35.3261 20.5534 35.3261C20.7891 35.0961 21.0043 34.8461 21.1965 34.5787C21.3782 34.2999 21.5417 34.0097 21.686 33.7098C21.6231 34.0434 21.493 34.3607 21.3037 34.6425C21.1242 34.9308 20.9166 35.2005 20.6838 35.4477C20.4414 35.6822 20.1851 35.9017 19.9162 36.1052C19.6569 36.3177 19.3787 36.5058 19.0849 36.6672C19.3236 36.4352 19.575 36.2166 19.838 36.0126H19.8351Z" fill="url(#paint10_radial_1_4156)"/>
<path d="M2.6183 21.7123C2.97526 21.7328 3.33332 21.7016 3.68134 21.6196C3.83585 21.5822 3.98776 21.5348 4.1361 21.4777C4.28836 21.4351 4.43742 21.3819 4.58218 21.3184C4.9096 21.1739 5.21486 20.9838 5.48881 20.7535C5.76773 20.5127 6.01581 20.2384 6.22743 19.9367L6.26799 19.8759C6.3404 19.9338 6.40992 19.9888 6.48523 20.0439V20.067C6.34237 20.4527 6.13034 20.809 5.85957 21.1185C5.5841 21.4345 5.25816 21.7027 4.895 21.9121C4.72876 22.011 4.55433 22.0953 4.37362 22.1642C4.18424 22.2189 3.99037 22.2567 3.79431 22.2771C3.47698 22.3177 3.15576 22.3177 2.83843 22.2771C2.80078 22.2047 2.76312 22.1323 2.73126 22.0599C2.67912 21.944 2.63567 21.831 2.58643 21.7181L2.6183 21.7123Z" fill="#E0A326"/>
<path d="M9.45955 25.2519C9.57768 25.1045 9.68329 24.9476 9.77528 24.7826L9.85928 24.6494C9.93219 24.5308 9.99796 24.4079 10.0562 24.2815C10.236 23.8866 10.3588 23.4682 10.4212 23.0389C10.4893 22.571 10.5145 22.0978 10.4965 21.6254L10.7862 21.6717C10.9001 22.1339 10.9517 22.6093 10.9397 23.0852C10.93 23.5785 10.843 24.0672 10.6819 24.5335C10.6269 24.69 10.5621 24.8429 10.4878 24.9912L10.4009 25.1592L10.288 25.3156C10.1899 25.4513 10.0814 25.5791 9.96355 25.6979C9.80077 25.8659 9.62338 26.019 9.43348 26.1556C9.2163 26.3078 8.98552 26.4397 8.7441 26.5495C8.57906 26.6217 8.4086 26.6808 8.2343 26.7262C8.07209 26.6422 7.90409 26.5524 7.73029 26.4539C8.00182 26.3628 8.26222 26.2413 8.50657 26.0919C8.87054 25.8692 9.19301 25.585 9.45955 25.2519Z" fill="#E0A326"/>
<path d="M25.7585 28.2294C25.551 28.6434 25.3916 29.0798 25.2834 29.53C25.2429 29.7154 25.211 29.8689 25.1965 29.9761C25.1821 30.0833 25.1705 30.1441 25.1705 30.1441L25.1386 30.3121C25.1154 30.4193 25.098 30.5757 25.072 30.761C25.0233 31.2175 25.0369 31.6784 25.1125 32.1311C25.1633 32.4285 25.2448 32.7197 25.3558 33.0001C25.1771 32.9518 25.0011 32.8938 24.8287 32.8263C24.7421 32.6391 24.6705 32.4454 24.6143 32.247C24.4672 31.7518 24.3968 31.237 24.4058 30.7205C24.4058 30.5119 24.4058 30.3353 24.4347 30.2136L24.455 30.0195L24.5014 29.8313C24.5274 29.7096 24.5767 29.5416 24.6404 29.3417C24.8051 28.8568 25.0319 28.3953 25.3153 27.9688C25.4455 27.7738 25.5877 27.5871 25.7411 27.4097C25.8512 27.4937 25.967 27.5748 26.0829 27.653C25.9699 27.8384 25.8425 28.0296 25.7585 28.2294Z" fill="#E0A326"/>
<path d="M28.4887 31.4492C28.4887 31.4492 28.4887 31.6578 28.5292 31.9706C28.5785 32.3551 28.6668 32.7336 28.7928 33.1002C28.7928 33.1437 28.8218 33.1842 28.8362 33.2248C28.6596 33.2248 28.48 33.2509 28.2975 33.2567C28.0233 32.7114 27.8432 32.1239 27.7645 31.5187C27.7584 31.3207 27.7633 31.1224 27.779 30.9249C27.8137 30.4937 27.8983 30.068 28.031 29.6562C28.131 29.3469 28.263 29.0489 28.4249 28.767C28.5379 28.8075 28.6509 28.8452 28.758 28.877C28.6563 29.1722 28.5797 29.4755 28.5292 29.7837C28.4624 30.1661 28.4353 30.5543 28.4481 30.9423C28.451 31.2435 28.4887 31.4492 28.4887 31.4492Z" fill="#E0A326"/>
<path style="mix-blend-mode:multiply" opacity="0.25" d="M5.77973 50.4606C5.29021 48.7226 8.19547 46.7877 8.96596 34.0949C9.27299 28.997 10.0927 27.6095 10.0927 27.6095C10.0927 27.6095 4.13737 25.1619 2.74701 22.051C2.50421 21.5145 2.30468 20.9595 2.15032 20.3913L5.84345 19.4875C5.91876 19.5599 5.99696 19.6323 6.08096 19.7048C5.77393 20.3594 5.16565 21.9004 5.72758 22.7693C6.45172 23.8961 10.7039 26.8245 12.1203 24.768C12.8445 23.7107 12.4882 22.6071 11.9668 21.7787H12.0769C12.9015 20.9174 13.9264 20.2735 15.0603 19.9046C17.9801 21.1183 22.7044 23.2589 20.8767 23.6702C18.2987 24.2495 14.0118 22.2219 14.0118 22.2219C14.5563 23.2762 14.6288 24.6203 13.9017 26.0743C13.1747 27.5284 11.9031 30.3989 12.5577 32.2151C13.2123 34.0312 16.0336 37.4839 19.3154 35.4476C22.5972 33.4114 21.9223 23.1314 21.9223 23.1314L22.7681 22.3406C22.855 22.6738 22.9767 23.088 23.1447 23.5456C22.3655 24.3769 22.8753 28.4466 24.2106 30.4713C25.5459 32.496 29.1898 31.7429 29.1898 31.7429C29.4297 32.173 29.5309 32.6667 29.4795 33.1565C27.701 33.3621 25.2882 33.3824 23.9036 32.3049C22.3539 31.0999 21.9976 30.3381 21.9397 29.9499L21.6501 33.9588C22.3306 34.2008 22.9961 34.4832 23.6429 34.8046C21.4734 34.99 22.2699 39.5115 23.2924 41.0062C24.3815 42.6051 23.472 43.8767 24.5264 44.6037C25.0564 44.9687 25.7951 44.5574 26.4004 44.0534C25.793 45.2693 25.116 46.4491 24.3728 47.5872C24.3728 47.5872 27.4171 47.6538 28.2774 49.1108C29.1377 50.5678 28.7409 50.6981 26.6235 50.7647C24.5061 50.8314 20.868 50.168 19.9411 49.3164C19.0142 48.4649 22.6204 43.5986 22.0787 41.6695C21.5371 39.7404 19.0663 39.3204 17.1546 38.9902C16.4768 38.8743 15.8859 39.3088 15.35 40.0069C14.901 39.0191 14.2146 38.1096 13.1573 37.7388C10.3592 36.7598 8.7603 44.317 9.05285 45.7334C9.2643 46.7733 10.8603 46.8746 11.7003 46.8544C10.898 48.2447 10.197 49.412 10.197 49.412C10.9816 49.4675 11.7499 49.6637 12.465 49.9914L11.0167 50.7734L5.77973 50.4606Z" fill="url(#paint11_radial_1_4156)"/>
<path d="M28.1609 31.3497C28.089 30.481 28.2605 29.6093 28.6562 28.8326C30.6548 29.464 31.8424 29.1976 31.8424 29.1976C31.8424 29.1976 33.2299 27.4104 34.8838 28.6675C36.5378 29.9246 36.7377 30.5213 36.0106 32.1086C35.2836 33.6959 33.4964 34.4259 31.7092 32.7719C30.6747 33.0164 29.6215 33.1734 28.5606 33.2412C28.367 32.625 28.2332 31.9916 28.1609 31.3497Z" fill="url(#paint12_radial_1_4156)"/>
<path d="M0.0223846 12.7907C0.285973 10.6096 0.891357 13.1875 0.891357 13.1875C0.891357 13.1875 0.758115 10.3431 2.41206 9.54941C4.066 8.75575 4.06601 13.315 4.06601 13.315C4.06601 13.315 4.26587 12.0578 4.99291 12.1911C5.71995 12.3243 5.2565 15.2991 4.12394 16.5562C4.4517 17.9211 5.25081 19.1264 6.38037 19.9597C6.19499 20.371 5.71416 21.1183 4.51498 21.7295C3.94886 21.9915 3.31653 22.0753 2.70172 21.9699C1.35771 18.9111 2.00654 17.2195 2.00654 17.2195C2.00654 17.2195 -0.2441 14.9747 0.0223846 12.7907Z" fill="url(#paint13_radial_1_4156)"/>
<path d="M22.9893 22.1332C22.9893 22.1332 24.0697 23.8277 19.945 23.5815C15.8202 23.3353 13.3147 21.3859 12.6253 20.4387C11.9359 19.4916 13.5117 18.6429 13.5117 18.6429L22.9893 22.1332Z" fill="url(#paint14_radial_1_4156)"/>
<path style="mix-blend-mode:color-burn" opacity="0.34" d="M22.9891 22.1323C23.012 22.169 23.0314 22.2078 23.0471 22.2481C22.7574 22.6218 21.9869 22.9462 20.0143 22.8274C15.8896 22.5783 13.3841 20.6318 12.6976 19.6847C12.6524 19.6226 12.6145 19.5555 12.5846 19.4848C12.8228 19.1339 13.1404 18.8441 13.5115 18.639L22.9891 22.1323Z" fill="url(#paint15_radial_1_4156)"/>
<g style="mix-blend-mode:multiply" opacity="0.25">
<path d="M18.4121 33.7116C21.2566 33.7116 22.1197 32.4718 22.1777 32.411L21.9344 32.2488C21.9344 32.2633 20.8221 33.81 17.0102 33.3263C13.0622 32.8281 10.0178 30.7657 9.11701 29.4623L8.87949 29.6245C9.80929 30.9743 12.9347 33.1004 16.9725 33.616C17.45 33.677 17.9308 33.7089 18.4121 33.7116Z" fill="url(#paint16_radial_1_4156)"/>
</g>
<g style="mix-blend-mode:multiply" opacity="0.25">
<path d="M26.8735 28.1032C26.5346 28.4711 26.0711 29.2155 25.9321 30.6319C25.8438 31.4676 25.8692 32.3115 26.0074 33.1404C25.9031 33.123 25.8017 33.1027 25.7004 33.0795C25.5743 32.2599 25.5558 31.4274 25.6453 30.603C25.7815 29.1894 26.2246 28.3958 26.6041 27.9671L26.8735 28.1032Z" fill="url(#paint17_radial_1_4156)"/>
<path d="M9.81115 21.4992L10.1008 21.5601C10.124 22.429 10.04 24.222 9.01459 25.1692C8.51556 25.6331 7.92295 25.9847 7.27664 26.2004C7.16078 26.1367 7.04781 26.0671 6.93195 25.9976C7.6388 25.8092 8.28904 25.4513 8.82631 24.9549C9.78218 24.0714 9.83721 22.2871 9.81115 21.4992Z" fill="url(#paint18_radial_1_4156)"/>
</g>
<path style="mix-blend-mode:color-burn" opacity="0.34" d="M35.0905 33.2686C34.2042 33.9174 32.9586 33.9232 31.7131 32.7704C30.6786 33.0149 29.6254 33.1718 28.5645 33.2396C28.369 32.6236 28.2332 31.9902 28.159 31.3482C28.0871 30.4794 28.2586 29.6078 28.6543 28.831C28.8194 28.8832 28.9787 28.9266 29.1323 28.9672C28.6601 30.0534 28.5008 32.0578 29.7695 31.7421C30.5545 31.5451 30.9281 30.2938 31.1251 29.251C31.3667 29.2558 31.6082 29.2373 31.8464 29.196C31.791 29.4733 31.8059 29.7601 31.8898 30.0302C32.1939 31.0093 32.9702 30.5024 32.9702 30.5024C32.9702 30.5024 32.8022 31.6175 33.6799 31.7189C34.5575 31.8203 34.7603 30.065 34.7603 30.065C35.6293 32.2258 33.312 32.6719 33.5437 33.2512C33.6828 33.5409 34.433 33.4308 35.0905 33.2686Z" fill="url(#paint19_radial_1_4156)"/>
<path style="mix-blend-mode:multiply" opacity="0.5" d="M34.3694 32.6514C34.4857 32.7201 34.6116 32.7709 34.743 32.8021C34.8624 32.8319 34.9866 32.8368 35.108 32.8165C35.2417 32.7969 35.3717 32.7568 35.4932 32.6978C35.6712 32.6225 35.819 32.49 35.9132 32.3212C35.7637 32.4208 35.6057 32.507 35.4411 32.579C35.2778 32.6372 35.1042 32.6608 34.9313 32.6485C34.7586 32.6456 34.5882 32.6082 34.4302 32.5385C34.2728 32.4544 34.1227 32.3575 33.9812 32.2488C34.0627 32.4221 34.1992 32.5637 34.3694 32.6514ZM33.1644 32.3096C33.2083 32.263 33.2603 32.2247 33.3179 32.1967C33.1653 32.1345 33.0309 32.0348 32.9269 31.907C32.8258 31.7821 32.7553 31.6353 32.7212 31.4783C32.6924 31.3519 32.6875 31.2213 32.7067 31.0931C32.7094 31.0546 32.7172 31.0166 32.7299 30.9801C32.7299 30.9569 32.7647 30.9048 32.7299 30.928C32.6594 30.9569 32.5803 30.9569 32.5098 30.928C32.4609 30.9127 32.4169 30.8847 32.3823 30.8469C32.3331 30.7947 32.336 30.7716 32.336 30.7716C32.336 30.7716 32.336 30.786 32.3968 30.8324C32.4326 30.8623 32.4739 30.885 32.5185 30.899C32.5671 30.9151 32.6189 30.9191 32.6694 30.9105C32.7199 30.9019 32.7676 30.8811 32.8081 30.8498C32.8458 30.8324 32.7763 31.0149 32.7849 31.0989C32.7786 31.2181 32.7923 31.3376 32.8255 31.4523C32.8637 31.5949 32.9365 31.7259 33.0376 31.8335C33.1387 31.9412 33.2649 32.0222 33.4048 32.0692C33.5413 32.1141 33.6872 32.1221 33.8277 32.0924C33.9458 32.0641 34.0564 32.0107 34.1521 31.936C34.2465 31.8651 34.3304 31.7813 34.4012 31.6869C34.4308 31.6531 34.4579 31.6173 34.4823 31.5797C34.5512 31.4829 34.6095 31.379 34.6561 31.2698C34.8015 30.9375 34.8448 30.5695 34.7807 30.2125C34.7089 29.8512 34.5326 29.5188 34.2738 29.2566C34.1502 29.1417 34.0207 29.0334 33.8856 28.9322C33.9322 28.942 33.9765 28.9607 34.016 28.9873C34.1273 29.046 34.2306 29.1191 34.323 29.2045C34.6119 29.4638 34.8141 29.8056 34.9023 30.1836C34.9887 30.5705 34.9554 30.9746 34.8068 31.3422L34.7807 31.4001C34.9216 31.4358 35.0677 31.4466 35.2123 31.432C35.3423 31.4215 35.4696 31.3892 35.5888 31.3364C35.6433 31.3131 35.6957 31.2849 35.7452 31.2524C35.7958 31.2242 35.8443 31.1922 35.8901 31.1568C35.9941 31.0754 36.0841 30.9776 36.1566 30.8671C36.253 30.6972 36.3289 30.5163 36.3825 30.3284C36.417 30.5375 36.3759 30.7521 36.2666 30.9338C36.1968 31.063 36.1057 31.1795 35.9972 31.2785C35.9011 31.3758 35.7813 31.4467 35.6497 31.4841C35.5111 31.5331 35.365 31.5576 35.2181 31.5565C35.0576 31.5549 34.8995 31.5183 34.7546 31.4494C34.7169 31.5282 34.6744 31.6046 34.6272 31.6782C34.6007 31.7205 34.5717 31.7611 34.5403 31.7998C34.4585 31.906 34.3608 31.9988 34.2506 32.075C34.1362 32.1575 34.006 32.2156 33.8683 32.2459V32.2662C33.8683 32.2662 33.848 32.2662 33.8248 32.2662C33.7023 32.2848 33.5772 32.2789 33.457 32.2488C33.3787 32.2813 33.3099 32.3331 33.2571 32.3994C33.2072 32.4534 33.1775 32.523 33.1731 32.5964C33.1834 32.6618 33.2081 32.7242 33.2455 32.7789C33.2831 32.8401 33.3268 32.8973 33.3758 32.9498C33.4186 33.0077 33.4682 33.0602 33.5236 33.1062C33.6427 33.2124 33.7829 33.2923 33.9349 33.3408C34.1676 33.3997 34.4093 33.4144 34.6474 33.3843C34.4181 33.5066 34.1504 33.5357 33.9001 33.4654C33.7243 33.4248 33.5593 33.3467 33.4164 33.2365C33.3509 33.1869 33.2907 33.1306 33.2368 33.0685C33.1839 33.0042 33.1382 32.9343 33.1007 32.86C33.053 32.7811 33.026 32.6914 33.0225 32.5993C33.029 32.4851 33.0799 32.378 33.1644 32.3009V32.3096ZM32.6778 32.9092C32.742 32.8589 32.8222 32.8332 32.9037 32.8368C32.9674 32.8368 33.0022 32.8687 32.9993 32.8803C32.9964 32.8918 32.8458 32.8976 32.7647 33.0048C32.7389 33.031 32.7202 33.0635 32.7106 33.099C32.701 33.1345 32.7006 33.1719 32.7096 33.2076C32.7063 33.2297 32.7063 33.2521 32.7096 33.2742C32.7328 33.3266 32.7674 33.3731 32.811 33.4103C32.9095 33.5059 33.0456 33.5754 33.0369 33.5986C33.0283 33.6218 32.8747 33.5986 32.7473 33.5146C32.6777 33.4744 32.619 33.4177 32.5764 33.3495C32.5522 33.3161 32.5362 33.2774 32.5296 33.2367C32.5231 33.1959 32.5262 33.1542 32.5387 33.1149C32.5611 33.0329 32.61 32.9606 32.6778 32.9092ZM31.6785 31.9563C31.6785 31.936 31.8175 31.9939 31.9449 32.0055C32.0276 32.0165 32.1114 32.0165 32.194 32.0055C32.2788 32.0077 32.3635 31.9989 32.446 31.9794C32.5706 31.9505 32.6865 31.8809 32.7038 31.8983C32.7212 31.9157 32.6256 32.0287 32.4924 32.0982C32.401 32.1429 32.3033 32.1731 32.2027 32.188C32.1038 32.1856 32.006 32.167 31.9131 32.1329C31.7711 32.0779 31.664 31.9765 31.6785 31.9563ZM31.5394 30.0995C31.5394 30.0995 31.4844 30.2907 31.4467 30.4877C31.4332 30.6241 31.403 30.7583 31.3569 30.8874C31.3151 30.7536 31.3023 30.6124 31.3193 30.4732C31.3245 30.3343 31.339 30.1959 31.3627 30.059C31.4007 29.9245 31.4481 29.7929 31.5047 29.6651C31.5493 29.5313 31.6224 29.4087 31.719 29.3059C31.7072 29.4382 31.679 29.5686 31.635 29.694C31.5742 29.9026 31.5394 30.0995 31.5394 30.0995ZM31.1687 29.8794C31.2372 29.7571 31.3147 29.6399 31.4004 29.5289C31.5278 29.3609 31.69 29.219 31.69 29.2393C31.6397 29.3675 31.5756 29.4899 31.4989 29.6042C31.4004 29.7809 31.3222 29.9663 31.3222 29.9663C31.3222 29.9663 31.2208 30.1401 31.1368 30.3226C31.0926 30.4532 31.0322 30.5777 30.9572 30.6933C30.9477 30.5525 30.9685 30.4113 31.018 30.2791C31.0586 30.1425 31.1089 30.0089 31.1687 29.8794ZM31.2295 32.046C31.274 32.133 31.3253 32.2163 31.383 32.2952C31.4291 32.3822 31.4834 32.4646 31.5452 32.5414C31.6379 32.6572 31.7538 32.7557 31.7422 32.7789C31.7306 32.8021 31.58 32.7354 31.4525 32.6312C31.3672 32.5622 31.2912 32.4823 31.2266 32.3936C31.1757 32.3018 31.1349 32.2047 31.1049 32.104C31.0644 31.9447 31.0702 31.7825 31.1049 31.7796C31.1397 31.7767 31.1629 31.9128 31.2295 32.046ZM2.74167 14.1684C2.7795 14.1014 2.8252 14.0391 2.87781 13.983C2.99212 13.8665 3.12409 13.7687 3.26885 13.6933L3.68016 13.4761C3.73895 13.437 3.80215 13.4049 3.86844 13.3805C3.86844 13.3805 3.81919 13.4558 3.71782 13.5369C3.61644 13.618 3.4716 13.7078 3.33546 13.8005C3.21208 13.8807 3.10088 13.9783 3.00526 14.0902C2.96461 14.1392 2.92963 14.1926 2.90098 14.2495C2.86773 14.3049 2.84147 14.3643 2.82277 14.4262C2.77791 14.5656 2.75638 14.7114 2.75905 14.8578C2.75905 15.188 2.84015 15.5182 2.81119 15.5269C2.7077 15.321 2.64663 15.0964 2.6316 14.8665C2.61369 14.7038 2.62349 14.5392 2.66057 14.3798C2.67915 14.3064 2.70638 14.2354 2.74167 14.1684ZM2.70691 10.7504C2.79174 10.4733 2.92512 10.2134 3.10085 9.98283C3.12402 9.98283 2.93574 10.3797 2.82856 10.7881C2.75866 11.0599 2.71119 11.3369 2.68663 11.6165C2.65156 11.895 2.6409 12.1761 2.65478 12.4565C2.67216 12.8794 2.77643 13.2965 2.75326 13.3023C2.62912 13.0398 2.55262 12.7574 2.52733 12.4681C2.49113 12.1799 2.48433 11.8887 2.50705 11.5991C2.54552 11.3103 2.61246 11.026 2.70691 10.7504ZM1.83794 12.2538C1.83794 12.4246 1.83794 12.6477 1.85532 12.8707C1.86819 13.0736 1.90217 13.2745 1.9567 13.4703C1.99191 13.558 2.02094 13.648 2.04359 13.7397C1.97535 13.6712 1.92381 13.588 1.89297 13.4964C1.81078 13.301 1.75525 13.0954 1.72787 12.8852C1.69601 12.6564 1.68152 12.4304 1.66993 12.2624L1.65546 11.9728C1.65092 11.6678 1.66834 11.3629 1.70759 11.0604C1.7371 10.7525 1.83614 10.4554 1.99725 10.1914C1.92631 10.4772 1.87502 10.7675 1.84373 11.0604C1.82439 11.3574 1.82439 11.6554 1.84373 11.9525L1.83794 12.2538ZM0.67931 12.723C0.705379 12.723 0.722763 12.8997 0.754623 13.0706C0.786488 13.2415 0.835728 13.4037 0.835728 13.4037C0.835728 13.4037 0.861794 13.5746 0.905243 13.7426C0.948692 13.9106 1.00662 14.0757 0.983448 14.0873C0.960274 14.0989 0.858894 13.9511 0.783585 13.7976C0.732864 13.6873 0.691212 13.573 0.659035 13.4558C0.639156 13.3361 0.62851 13.2151 0.627174 13.0938C0.614395 12.9678 0.632282 12.8406 0.67931 12.723ZM3.45713 16.729C3.5386 16.7107 3.61889 16.6875 3.69754 16.6594C3.8134 16.616 3.92927 16.5552 3.94665 16.5754C3.96403 16.5957 3.86844 16.6942 3.75547 16.7724C3.67962 16.8233 3.59913 16.867 3.51506 16.9028C3.42578 16.9243 3.33457 16.9369 3.24278 16.9404C3.10664 16.9404 2.97339 16.9172 2.97339 16.8912C2.97339 16.8651 3.10374 16.8477 3.2225 16.813C3.30228 16.7895 3.38062 16.7615 3.45713 16.729ZM1.55118 16.5233C1.62342 16.6014 1.70404 16.6714 1.7916 16.7319C1.87237 16.8027 1.95965 16.8657 2.05228 16.9201C2.19422 17.0012 2.35643 17.0476 2.34194 17.0708C2.32746 17.0939 2.15946 17.0939 1.98856 17.036C1.87576 16.9973 1.7686 16.9437 1.66993 16.8767C1.5802 16.7954 1.50134 16.703 1.43531 16.6015C1.33973 16.4509 1.29628 16.2771 1.31945 16.2684C1.34262 16.2597 1.43822 16.4074 1.55118 16.5233Z" fill="url(#paint20_radial_1_4156)"/>
<path style="mix-blend-mode:color-burn" opacity="0.34" d="M2.00559 17.2225C1.52087 16.7123 1.09707 16.1476 0.742689 15.5396C1.322 15.5685 1.71884 15.4034 1.36835 14.9603C1.01786 14.5171 0.684756 13.2078 0.47041 12.026C0.656324 12.3931 0.794544 12.7825 0.881719 13.1847C0.869549 12.7136 0.908403 12.2425 0.997589 11.7798C1.18587 12.6807 1.86656 13.3613 2.77608 13.1151C3.3554 12.9558 3.66533 11.9565 3.83333 11.0644C3.97452 11.8074 4.04916 12.5616 4.05637 13.3179C4.05637 13.3179 4.17223 12.5851 4.55168 12.2983C4.36848 12.8755 4.06545 13.4075 3.66243 13.8596C2.94408 14.5229 2.72104 15.5975 3.63347 15.8872C4.09692 16.0262 4.67624 15.2673 5.131 14.4852C4.95522 15.2462 4.61073 15.9579 4.12299 16.5679C4.14079 16.6656 4.16401 16.7623 4.19251 16.8575C3.97833 16.9489 3.75354 17.0131 3.5234 17.0487C2.25181 17.2428 2.3358 19.2617 3.13815 20.3942C3.9405 21.5268 6.03473 20.5304 6.03473 20.5304C5.62129 21.0403 5.10126 21.4536 4.51113 21.7411C3.94502 22.0031 3.31269 22.0869 2.69788 21.9816C1.35676 18.9141 2.00559 17.2225 2.00559 17.2225Z" fill="url(#paint21_radial_1_4156)"/>
<path style="mix-blend-mode:screen" d="M18.9285 29.9416C18.9788 29.8158 19.0148 29.6846 19.0357 29.5506C19.0878 29.3131 19.1486 28.9945 19.2066 28.6816C19.3166 28.0444 19.3948 27.3984 19.3948 27.3984C19.3948 27.3984 19.4528 26.7554 19.4788 26.1066C19.4933 25.7822 19.4991 25.4577 19.4991 25.2173C19.5073 25.0817 19.4995 24.9456 19.4759 24.8118C19.4466 24.9441 19.4301 25.0789 19.4267 25.2144C19.4064 25.4548 19.3804 25.7764 19.3514 26.0979C19.2935 26.7409 19.2152 27.3811 19.2152 27.3811C19.2152 27.3811 19.1573 28.0241 19.0791 28.6643C19.0386 28.9829 18.9951 29.3044 18.9661 29.5332C18.9401 29.6678 18.9275 29.8046 18.9285 29.9416ZM18.5172 31.5608C18.5925 31.3581 18.6446 31.1524 18.6446 31.1524C18.692 31.0184 18.7326 30.8821 18.7663 30.744C18.7877 30.5988 18.8236 30.4562 18.8735 30.3182C18.9111 30.4639 18.918 30.6158 18.8937 30.7643C18.8787 30.9126 18.8536 31.0597 18.8184 31.2045C18.7673 31.3453 18.7053 31.4818 18.633 31.613C18.5259 31.8099 18.3839 31.9837 18.3637 31.9692C18.4022 31.8287 18.4536 31.692 18.5172 31.5608ZM18.3318 23.0536C18.7012 23.1255 19.0746 23.1758 19.4499 23.2042C19.8242 23.2417 20.2004 23.2581 20.5766 23.2534C21.156 23.2534 21.7063 23.1608 21.7121 23.1868C21.345 23.298 20.9656 23.3632 20.5824 23.3809C20.1967 23.4076 19.8095 23.4076 19.4238 23.3809C19.042 23.3387 18.6635 23.27 18.2912 23.1752C17.9178 23.0912 17.5567 22.9598 17.2166 22.7842C17.2369 22.7639 17.7757 22.9464 18.3318 23.0536ZM15.3454 21.9181C15.5858 22.0456 15.8291 22.1556 15.8291 22.1556C15.8291 22.1556 16.0667 22.286 16.3129 22.399C16.4839 22.4628 16.6496 22.5403 16.8082 22.6307C16.6223 22.6265 16.4387 22.5882 16.2665 22.5177C16.0904 22.46 15.9173 22.3933 15.748 22.3179C15.5862 22.2303 15.4296 22.1336 15.2788 22.0282C15.1207 21.9313 14.9798 21.809 14.8617 21.6661C15.03 21.7357 15.1919 21.82 15.3454 21.9181Z" fill="url(#paint22_radial_1_4156)"/>
<g style="mix-blend-mode:screen">
<path d="M34.1027 28.7143C34.1027 28.7375 34.3924 28.8447 34.6647 29.004C34.8411 29.115 35.0069 29.242 35.16 29.3834C35.3209 29.5145 35.4666 29.6631 35.5945 29.8266C35.6797 29.9396 35.7435 30.0672 35.7828 30.2031C35.8117 30.3161 35.8088 30.3972 35.8233 30.3972C35.8548 30.3336 35.865 30.2614 35.8523 30.1916C35.835 30.0373 35.7836 29.8889 35.7016 29.7571C35.5853 29.5681 35.4429 29.3965 35.2787 29.2473C35.1082 29.1083 34.9226 28.9888 34.7255 28.891C34.5334 28.7871 34.3208 28.7267 34.1027 28.7143Z" fill="url(#paint23_radial_1_4156)"/>
<path d="M33.9145 31.236C33.9319 31.2534 34.0941 31.1172 34.2042 30.9289C34.2749 30.8037 34.3276 30.6692 34.3606 30.5292C34.38 30.3879 34.38 30.2447 34.3606 30.1034C34.3467 29.961 34.289 29.8264 34.1955 29.7182C34.1723 29.7182 34.2303 29.9209 34.2303 30.115C34.2321 30.2446 34.2185 30.3739 34.1897 30.5002C34.1739 30.6281 34.1427 30.7535 34.097 30.8739C34.0159 31.0564 33.8972 31.2186 33.9145 31.236Z" fill="url(#paint24_radial_1_4156)"/>
<path d="M34.9896 32.3528C34.9896 32.376 35.1547 32.4049 35.3227 32.3702C35.4396 32.3574 35.5522 32.3189 35.6524 32.2572C35.7526 32.1956 35.8379 32.1125 35.902 32.0139C36.0063 31.8749 36.0526 31.7098 36.0294 31.7011C36.0063 31.6924 35.9223 31.8256 35.8064 31.927C35.7314 31.9943 35.6487 32.0526 35.5602 32.1008C35.4792 32.1598 35.3917 32.2094 35.2995 32.2485C35.1489 32.3036 34.9896 32.3267 34.9896 32.3528Z" fill="url(#paint25_radial_1_4156)"/>
<path d="M29.0518 29.4658C29.1738 29.556 29.3142 29.6183 29.4631 29.6482C29.6072 29.6891 29.7545 29.7182 29.9033 29.7351C30.0546 29.7354 30.2057 29.7238 30.3552 29.7004C30.5059 29.6913 30.652 29.6456 30.781 29.5671C30.6354 29.5554 30.4892 29.5554 30.3436 29.5671C30.2005 29.5681 30.0574 29.5613 29.9149 29.5469C29.9149 29.5469 29.7006 29.5469 29.4891 29.5179C29.3457 29.4847 29.199 29.4672 29.0518 29.4658Z" fill="url(#paint26_radial_1_4156)"/>
<path d="M4.2274 17.6175C4.23624 17.8427 4.28224 18.0648 4.36354 18.275C4.43561 18.4889 4.52372 18.6971 4.62713 18.8978C4.74457 19.0891 4.87523 19.2721 5.01816 19.4452C5.15332 19.6263 5.32016 19.7813 5.51058 19.9029C5.52796 19.8855 5.30492 19.6393 5.12244 19.367C4.99925 19.1876 4.88704 19.0009 4.78644 18.808C4.67377 18.621 4.57222 18.4276 4.4823 18.2287C4.34906 17.9303 4.25347 17.6117 4.2274 17.6175Z" fill="url(#paint27_radial_1_4156)"/>
<path d="M4.05034 15.6906C4.23733 15.5165 4.40443 15.3222 4.54855 15.1113C4.69947 14.9029 4.83224 14.682 4.94538 14.4509C5.04169 14.2091 5.10125 13.9543 5.12208 13.6949C5.15415 13.4362 5.10773 13.1738 4.98884 12.9418C5.0155 13.1873 5.0155 13.4349 4.98884 13.6804C4.94988 13.9222 4.87673 14.1573 4.7716 14.3785C4.67728 14.6072 4.56492 14.828 4.43559 15.0389C4.29163 15.2466 4.16287 15.4644 4.05034 15.6906Z" fill="url(#paint28_radial_1_4156)"/>
<path d="M2.95854 11.9717C3.01411 11.8594 3.0522 11.7392 3.07151 11.6154L3.16419 11.262L3.22792 10.9029C3.26391 10.7827 3.28053 10.6575 3.27716 10.5321C3.25399 10.5321 3.17289 10.6914 3.10626 10.8681C3.03964 11.0448 2.9875 11.2244 2.9875 11.2244C2.9875 11.2244 2.95854 11.4098 2.94406 11.5951C2.92128 11.7202 2.92622 11.8488 2.95854 11.9717Z" fill="url(#paint29_radial_1_4156)"/>
<path d="M1.97724 11.6565C2.02351 11.5123 2.05553 11.3638 2.07283 11.2133C2.11628 10.9961 2.18291 10.7846 2.18291 10.7846C2.18291 10.7846 2.22925 10.5703 2.29587 10.3559C2.35703 10.2175 2.40269 10.0728 2.43201 9.92435C2.32204 10.0344 2.23535 10.1654 2.17711 10.3096C2.1105 10.4485 2.0534 10.5917 2.00621 10.7383C1.97523 10.8892 1.95491 11.0422 1.94538 11.1959C1.925 11.35 1.93583 11.5067 1.97724 11.6565Z" fill="url(#paint30_radial_1_4156)"/>
<path d="M0.640747 14.74C0.602366 14.5667 0.554994 14.3956 0.498818 14.2273C0.456225 14.0586 0.424295 13.8873 0.403226 13.7146C0.367859 13.5434 0.342717 13.3703 0.327921 13.1961C0.327696 13.0189 0.316078 12.8418 0.293154 12.666C0.225386 12.8354 0.192865 13.0167 0.197571 13.199C0.19199 13.3809 0.200706 13.563 0.223639 13.7436C0.260397 13.9222 0.311741 14.0976 0.377158 14.2679C0.431598 14.4417 0.521333 14.6024 0.640747 14.74Z" fill="url(#paint31_radial_1_4156)"/>
</g>
<path style="mix-blend-mode:screen" d="M20.7766 32.838H20.7361C19.9956 33.0727 19.2139 33.1487 18.442 33.0611C19.7686 30.9234 21.4081 27.7314 21.7036 24.6234C21.7036 24.6234 21.8223 29.4027 21.0518 31.9864C20.9591 32.3022 20.8664 32.5918 20.7766 32.838Z" fill="url(#paint32_radial_1_4156)"/>
<path d="M17.1375 22.0081C11.3186 20.2503 7.87443 14.6111 9.44481 9.41256C11.0152 4.21406 17.0054 1.42483 22.8244 3.18263C28.6433 4.94044 32.0874 10.5796 30.517 15.7781C28.9467 20.9766 22.9564 23.7659 17.1375 22.0081Z" fill="url(#paint33_radial_1_4156)"/>
<path style="mix-blend-mode:multiply" opacity="0.25" d="M9.70373 9.41945C10.5727 6.55474 12.777 4.42575 15.5606 3.38878C13.4207 4.52673 11.8174 6.46432 11.0999 8.77931C9.53573 13.9642 12.9711 19.5864 18.7729 21.3389C21.22 22.0971 23.8482 22.032 26.2548 21.1535C24.9039 21.8736 23.4231 22.3175 21.8988 22.4593C20.3745 22.601 18.8373 22.4377 17.3768 21.979C11.572 20.2179 8.13669 14.5927 9.70373 9.41945Z" fill="url(#paint34_radial_1_4156)"/>
<path style="mix-blend-mode:multiply" d="M23.4706 5.28822C25.4976 5.49727 27.4373 6.22227 29.1044 7.39403C30.9003 9.81267 31.5897 12.8541 30.7149 15.7564C30.3325 16.979 29.7009 18.109 28.8598 19.0752C28.0188 20.0414 26.9866 20.8228 25.8284 21.37C24.4695 21.6851 23.0668 21.7664 21.6805 21.6104C16.0814 20.9935 11.9451 16.8427 12.4404 12.3414C12.9358 7.8401 17.8744 4.67415 23.4706 5.28822Z" fill="url(#paint35_radial_1_4156)"/>
<path style="mix-blend-mode:multiply" d="M12.4398 12.3327C12.6495 10.5944 13.4919 8.99407 14.8063 7.83723C14.4327 12.2777 18.5313 16.33 24.058 16.9383C25.5063 17.0976 26.9545 17.1468 28.2088 16.6979C29.295 16.3097 30.1755 15.5161 30.9605 14.705C30.8994 15.0582 30.8172 15.4074 30.7143 15.7507C30.3319 16.9732 29.7002 18.1033 28.8592 19.0694C28.0181 20.0356 26.986 20.817 25.8278 21.3642C24.4688 21.6793 23.0661 21.7606 21.6799 21.6047C16.0808 20.9877 11.9387 16.8369 12.4398 12.3327Z" fill="url(#paint36_radial_1_4156)"/>
<g style="mix-blend-mode:screen" opacity="0.35">
<path d="M17.1362 10.6583C16.6873 13.0914 19.4535 13.7084 22.9844 14.3601C26.5153 15.0118 29.4322 15.4521 29.8841 13.0161C30.3359 10.5801 27.8565 8.09193 24.3255 7.42861C20.7946 6.7653 17.5881 8.22227 17.1362 10.6583Z" fill="#E0A326"/>
</g>
<g style="mix-blend-mode:screen" opacity="0.35">
<path d="M20.4938 10.2083C20.2244 11.6566 21.8754 12.0187 23.9697 12.4068C26.0639 12.7949 27.7989 13.0556 28.0654 11.6102C28.3319 10.1648 26.8547 8.67601 24.7662 8.29076C22.6778 7.90552 20.7603 8.76001 20.4938 10.2083Z" fill="#E0A326"/>
</g>
<g style="mix-blend-mode:screen" opacity="0.35">
<path d="M26.1505 18.9416C26.5502 17.4933 24.2272 18.1335 21.6377 17.418C19.0481 16.7025 17.174 14.9038 16.7743 16.3579C16.3746 17.8119 18.1473 19.5644 20.7368 20.2769C23.3264 20.9895 25.7508 20.3928 26.1505 18.9416Z" fill="#E0A326"/>
</g>
<g style="mix-blend-mode:screen" opacity="0.35">
<path d="M29.93 16.3207C30.7989 13.4241 30.1124 10.3798 28.3166 7.95828C26.6501 6.78767 24.7115 6.06366 22.6856 5.85537C20.0776 5.53106 17.4372 6.10965 15.2038 7.49483C17.2661 5.82351 20.2583 4.93136 23.4706 5.28474C25.4976 5.4938 27.4373 6.21879 29.1044 7.39055C30.9003 9.80919 31.5897 12.8506 30.7149 15.753C30.0813 17.8112 28.7377 19.5778 26.9233 20.738C28.3506 19.6048 29.3992 18.0641 29.93 16.3207Z" fill="#E0A326"/>
</g>
<path d="M12.4402 12.3319C12.9355 7.82486 17.8742 4.6705 23.4704 5.28457C25.4974 5.49362 27.437 6.21862 29.1042 7.39038C29.5994 8.05788 30.0127 8.78237 30.3353 9.54833C30.0807 9.053 29.7831 8.58098 29.446 8.1377C27.8703 7.06218 26.0496 6.39982 24.1511 6.21147C18.8851 5.64954 14.2419 8.52873 13.7755 12.6679C13.3092 16.8071 17.2022 20.6017 22.4653 21.1665C23.7681 21.3087 25.0855 21.2344 26.3641 20.9464C26.8544 20.7106 27.3243 20.4345 27.7689 20.1208C27.1713 20.6083 26.5202 21.0261 25.8282 21.3664C24.4692 21.6814 23.0666 21.7627 21.6803 21.6068C16.0812 20.9869 11.9391 16.8361 12.4402 12.3319Z" fill="url(#paint37_radial_1_4156)"/>
<path style="mix-blend-mode:color-burn" opacity="0.34" d="M23.0999 20.9223C24.3657 21.0573 25.6449 20.9878 26.8887 20.7167C26.9842 20.6732 27.0769 20.6182 27.1783 20.5718C26.8905 20.773 26.5927 20.9596 26.2862 21.1309C24.9926 21.4107 23.6625 21.4801 22.3468 21.3365C16.9099 20.7572 12.8924 16.8555 13.3674 12.6207C13.8425 8.38595 18.645 5.41985 24.0848 5.99627C26.0144 6.18754 27.8675 6.84999 29.4811 7.92539C29.6842 8.23635 29.8699 8.55836 30.0372 8.88995C29.9851 8.82043 29.9388 8.74512 29.8866 8.6756C28.3451 7.66182 26.579 7.04033 24.7423 6.86524C19.6327 6.33517 15.1228 9.05216 14.6709 12.9481C14.219 16.8439 17.9904 20.3951 23.0999 20.9223Z" fill="url(#paint38_radial_1_4156)"/>
<path style="mix-blend-mode:screen" d="M19.6935 2.93852C23.068 2.91535 25.4693 4.6533 26.3353 5.67868C26.3353 5.67868 24.5366 4.46212 21.0896 4.89081C20.7528 4.15706 20.279 3.49442 19.6935 2.93852Z" fill="url(#paint39_radial_1_4156)"/>
<path style="mix-blend-mode:screen" d="M18.055 3.08137C18.3447 3.03213 18.6343 2.99737 18.924 2.9713C19.5998 3.51356 20.1494 4.19658 20.5345 4.97283C19.8658 5.0853 19.2057 5.24403 18.559 5.44787C13.4611 7.04099 12.6413 10.1838 12.6413 10.1838C12.6413 10.1838 13.8202 3.81131 18.055 3.08137Z" fill="url(#paint40_radial_1_4156)"/>
<path style="mix-blend-mode:multiply" opacity="0.25" d="M23.0423 3.19129C24.8089 3.71769 26.4298 4.64561 27.7782 5.90248C28.6472 7.86346 27.7782 9.24513 25.5391 9.02789C23.1002 8.78747 22.4659 7.92429 22.2689 6.91918C22.0719 5.91407 22.5412 3.33611 18.793 2.69018C20.2279 2.60406 21.6668 2.77374 23.0423 3.19129Z" fill="url(#paint41_radial_1_4156)"/>
<path d="M24.7367 2.39351C26.0467 2.96053 27.1302 3.94822 27.8157 5.20029C29.0583 7.36114 28.2763 8.96584 25.9764 8.73991C23.6765 8.51397 23.0798 7.68266 22.8973 6.7123C22.7148 5.74195 23.1725 3.17269 19.4012 2.62234C19.4012 2.62524 20.0934 0.78591 24.7367 2.39351Z" fill="url(#paint42_radial_1_4156)"/>
<path style="mix-blend-mode:multiply" opacity="0.5" d="M21.183 1.74414C23.7552 2.59284 23.4134 4.72472 23.5756 5.585C23.761 6.54956 24.3577 7.37798 26.6576 7.6126C27.2553 7.70905 27.868 7.59978 28.3955 7.30267C28.2796 8.29909 27.4367 8.88999 25.9827 8.75096C23.6857 8.52213 23.0861 7.69371 22.9036 6.72335C22.7211 5.753 23.1788 3.18374 19.4074 2.63339C19.4016 2.6247 19.6971 1.84552 21.183 1.74414Z" fill="url(#paint43_radial_1_4156)"/>
<path style="mix-blend-mode:multiply" opacity="0.5" d="M19.4 2.62477C19.4 2.62477 19.6896 1.84559 21.1814 1.7558C23.7535 2.60449 23.4117 4.73637 23.5739 5.59666C23.6364 5.97747 23.8017 6.33401 24.0519 6.62784C23.8944 7.03526 23.6387 7.39745 23.3075 7.68219C23.0935 7.40243 22.9522 7.07403 22.8961 6.72632C22.7108 5.75017 23.1713 3.17512 19.4 2.62477Z" fill="url(#paint44_radial_1_4156)"/>
<g style="mix-blend-mode:screen">
<path d="M27.7892 6.81216C27.7954 6.446 27.7345 6.0818 27.6097 5.73753C27.4894 5.38959 27.3341 5.05476 27.1462 4.73821C26.9435 4.43042 26.7158 4.13978 26.4655 3.86924C26.224 3.59608 25.9496 3.35382 25.6487 3.14799C25.6313 3.16827 26.0281 3.53903 26.3699 3.95324C26.5971 4.22836 26.8052 4.51869 26.9927 4.82222C27.1872 5.12169 27.353 5.43882 27.488 5.7694C27.6069 6.11138 27.7075 6.45946 27.7892 6.81216Z" fill="url(#paint45_radial_1_4156)"/>
<path d="M24.3793 7.83418C24.5354 7.97136 24.7163 8.07753 24.9122 8.14701C25.1043 8.22759 25.303 8.29155 25.506 8.33819C25.712 8.37012 25.9203 8.38466 26.1288 8.38163C26.3376 8.3877 26.5458 8.3553 26.7429 8.28605C26.7429 8.25998 26.4329 8.28605 26.1346 8.25129C25.9398 8.23352 25.7463 8.20353 25.5553 8.1615C25.3597 8.1285 25.1663 8.08401 24.9759 8.02825C24.6689 7.94135 24.3937 7.81101 24.3793 7.83418Z" fill="url(#paint46_radial_1_4156)"/>
<path d="M24.3069 6.43124C24.3069 6.41676 24.2287 6.35593 24.1447 6.22558C24.0473 6.06633 23.9833 5.88895 23.9565 5.7042C23.9278 5.51228 23.9104 5.31884 23.9043 5.12488L23.8898 4.86129C23.8621 4.57795 23.8176 4.29649 23.7566 4.01839C23.7128 3.73656 23.6144 3.46599 23.4669 3.22183C23.4438 3.22183 23.5915 3.62735 23.6436 4.04156C23.6958 4.45577 23.7218 4.87578 23.7218 4.87578L23.7508 5.13937C23.7677 5.33446 23.7987 5.52807 23.8435 5.71868C23.8858 5.91608 23.9741 6.10069 24.1013 6.25744C24.1969 6.39648 24.3012 6.43993 24.3069 6.43124Z" fill="url(#paint47_radial_1_4156)"/>
<path d="M24.5585 6.45809C24.5382 6.45809 24.6222 6.6145 24.7381 6.73036C24.8163 6.80806 24.9028 6.87702 24.9959 6.93602C25.0962 6.98173 25.2011 7.01668 25.3087 7.0403C25.4709 7.07795 25.636 7.07216 25.636 7.0403C25.636 7.00844 25.4883 6.97657 25.3464 6.91285C25.2545 6.87159 25.1654 6.82417 25.0799 6.77092C24.9887 6.72897 24.9006 6.68057 24.8163 6.62609C24.6831 6.54788 24.5759 6.4436 24.5585 6.45809Z" fill="url(#paint48_radial_1_4156)"/>
</g>
<path style="mix-blend-mode:multiply" opacity="0.25" d="M10.4505 7.64696C10.688 8.13358 11.67 9.76435 14.5463 10.8332C14.5463 10.8332 15.3718 11.4589 15.1256 12.9071C14.8794 14.3554 14.4999 14.6798 13.2457 14.6798C12.2812 14.6798 10.5403 14.3902 9.42803 13.2953C9.2327 11.9903 9.33167 10.6582 9.71768 9.39649C9.89763 8.7884 10.1434 8.20176 10.4505 7.64696Z" fill="url(#paint49_radial_1_4156)"/>
<path d="M14.5463 10.5108C14.5463 10.5108 15.3718 11.0727 15.1256 12.3762C14.8794 13.6797 14.4999 13.9693 13.2457 13.9693C11.9915 13.9693 9.43672 13.5174 8.63437 11.652C7.83202 9.78665 9.13548 7.59684 10.3868 7.48967C10.3839 7.50126 11.137 9.35796 14.5463 10.5108Z" fill="url(#paint50_radial_1_4156)"/>
<path style="mix-blend-mode:multiply" opacity="0.5" d="M9.80594 7.69743C9.53327 8.14511 9.36854 8.65012 9.3248 9.17247C9.28107 9.69482 9.35951 10.2202 9.55393 10.707C10.3563 12.5608 12.914 13.0242 14.1682 13.0242C14.4414 13.031 14.7144 13.0067 14.9821 12.9518C14.7214 13.7773 14.2898 13.983 13.2442 13.983C11.99 13.983 9.43517 13.5311 8.63282 11.6657C7.95212 10.0958 8.77765 8.28254 9.80594 7.69743Z" fill="url(#paint51_radial_1_4156)"/>
<path style="mix-blend-mode:screen" d="M14.3638 12.7161C14.6158 11.4126 13.7845 10.8507 13.7845 10.8507C10.3752 9.69206 9.62209 7.84405 9.62209 7.84405C9.60474 7.84266 9.58731 7.84266 9.56996 7.84405C9.80003 7.65193 10.0806 7.53024 10.3781 7.49356C10.3781 7.49356 11.1312 9.35027 14.5405 10.5031C14.5405 10.5031 15.366 11.065 15.1198 12.3685C14.917 13.42 14.6332 13.8168 13.8714 13.924C14.1118 13.6922 14.2566 13.3099 14.3638 12.7161Z" fill="url(#paint52_radial_1_4156)"/>
<path style="mix-blend-mode:screen" d="M9.62221 7.84405C9.60486 7.84266 9.58743 7.84266 9.57007 7.84405C9.80014 7.65193 10.0807 7.53024 10.3782 7.49356C10.3782 7.49356 11.1313 9.35027 14.5406 10.5031L14.5782 10.5321L13.802 10.8565H13.7846C10.3811 9.70944 9.62221 7.84405 9.62221 7.84405Z" fill="url(#paint53_radial_1_4156)"/>
<g style="mix-blend-mode:screen">
<path d="M13.533 11.2913C13.5156 11.3087 13.6749 11.5143 13.7618 11.749C13.8204 11.9048 13.8593 12.0673 13.8777 12.2327C13.9075 12.396 13.9163 12.5625 13.9037 12.728C13.9037 12.9771 13.7937 13.2204 13.8168 13.232C13.9311 13.0922 14.0051 12.924 14.0312 12.7454C14.0659 12.568 14.0747 12.3865 14.0573 12.2066C14.0218 12.0291 13.9613 11.8574 13.8777 11.6968C13.8028 11.5322 13.6834 11.3917 13.533 11.2913Z" fill="url(#paint54_radial_1_4156)"/>
<path d="M10.6875 9.59425C10.8566 9.76545 11.0452 9.91614 11.2495 10.0432C11.5391 10.2489 11.8491 10.4343 11.8491 10.4343C11.8491 10.4343 12.1677 10.6052 12.495 10.7529C12.7082 10.8633 12.9338 10.9479 13.167 11.0049C12.9721 10.8665 12.7668 10.7435 12.5529 10.637L11.9388 10.2865L11.3161 9.94184C11.1155 9.81045 10.9054 9.69426 10.6875 9.59425Z" fill="url(#paint55_radial_1_4156)"/>
<path d="M9.62228 12.5421C9.64256 12.5218 9.37028 12.2524 9.14724 11.9425C9.0466 11.8059 8.96204 11.6582 8.89524 11.5022C8.86569 11.4317 8.84148 11.3591 8.82283 11.285C8.79976 11.2129 8.78138 11.1393 8.76779 11.0649C8.74106 10.8963 8.7304 10.7256 8.73593 10.5551C8.73593 10.1785 8.81124 9.79615 8.78228 9.79036C8.68942 10.033 8.63092 10.2875 8.60848 10.5464C8.58837 10.7264 8.58837 10.908 8.60848 11.088C8.61923 11.1719 8.6347 11.255 8.65483 11.3371C8.68067 11.4177 8.71262 11.4961 8.75041 11.5718C8.82674 11.7335 8.92413 11.8845 9.04007 12.0207C9.20618 12.2234 9.40256 12.3993 9.62228 12.5421Z" fill="url(#paint56_radial_1_4156)"/>
<path d="M10.0737 12.7821C10.0593 12.8024 10.1664 12.9125 10.2881 13.0109C10.3679 13.0761 10.451 13.137 10.5372 13.1934C10.5372 13.1934 10.6762 13.263 10.8269 13.318C10.9775 13.373 11.1165 13.4136 11.131 13.3904C11.1455 13.3672 11.0122 13.2861 10.8848 13.2021L10.6328 13.037L10.3634 12.9038C10.2244 12.8343 10.0882 12.7618 10.0737 12.7821Z" fill="url(#paint57_radial_1_4156)"/>
</g>
<defs>
<radialGradient id="paint0_radial_1_4156" cx="0" cy="0" r="1" gradientUnits="userSpaceOnUse" gradientTransform="translate(38.8977 17.586) rotate(180) scale(0.973249)">
<stop offset="0.06" stop-color="#E47E99"/>
<stop offset="0.53" stop-color="#E43D99"/>
<stop offset="0.99" stop-color="#B30058"/>
</radialGradient>
<radialGradient id="paint1_radial_1_4156" cx="0" cy="0" r="1" gradientUnits="userSpaceOnUse" gradientTransform="translate(59.9394 27.7909) rotate(163) scale(44.4219 44.4219)">
<stop offset="0.06" stop-color="#0A1656"/>
<stop offset="0.89" stop-color="#4478AD"/>
</radialGradient>
<radialGradient id="paint2_radial_1_4156" cx="0" cy="0" r="1" gradientUnits="userSpaceOnUse" gradientTransform="translate(59.9389 27.7888) rotate(163) scale(44.4218)">
<stop offset="0.06" stop-color="#0A1656"/>
<stop offset="0.89" stop-color="#4478AD"/>
</radialGradient>
<radialGradient id="paint3_radial_1_4156" cx="0" cy="0" r="1" gradientUnits="userSpaceOnUse" gradientTransform="translate(12.1567 7.14325) rotate(-180) scale(1.0109)">
<stop offset="0.06" stop-color="#E47E99"/>
<stop offset="0.53" stop-color="#E43D99"/>
<stop offset="0.99" stop-color="#B30058"/>
</radialGradient>
<radialGradient id="paint4_radial_1_4156" cx="0" cy="0" r="1" gradientUnits="userSpaceOnUse" gradientTransform="translate(18.2064 31.1993) rotate(180) scale(20.0559)">
<stop offset="0.06" stop-color="#FAF1D6"/>
<stop offset="0.24" stop-color="#F8EDD3"/>
<stop offset="0.42" stop-color="#F2E1CA"/>
<stop offset="0.61" stop-color="#E8CCBA"/>
<stop offset="0.8" stop-color="#DAB0A5"/>
<stop offset="0.95" stop-color="#CC928E"/>
</radialGradient>
<radialGradient id="paint5_radial_1_4156" cx="0" cy="0" r="1" gradientUnits="userSpaceOnUse" gradientTransform="translate(9.35262 22.2716) rotate(180) scale(2.16084 2.16085)">
<stop offset="0.06" stop-color="#FAF1D6"/>
<stop offset="0.24" stop-color="#F8EDD3"/>
<stop offset="0.42" stop-color="#F2E1CA"/>
<stop offset="0.61" stop-color="#E8CCBA"/>
<stop offset="0.8" stop-color="#DAB0A5"/>
<stop offset="0.95" stop-color="#CC928E"/>
</radialGradient>
<radialGradient id="paint6_radial_1_4156" cx="0" cy="0" r="1" gradientUnits="userSpaceOnUse" gradientTransform="translate(9.35279 22.2723) rotate(180) scale(2.16085 2.16085)">
<stop offset="0.06" stop-color="#FAF1D6"/>
<stop offset="0.24" stop-color="#F8EDD3"/>
<stop offset="0.42" stop-color="#F2E1CA"/>
<stop offset="0.61" stop-color="#E8CCBA"/>
<stop offset="0.8" stop-color="#DAB0A5"/>
<stop offset="0.95" stop-color="#CC928E"/>
</radialGradient>
<radialGradient id="paint7_radial_1_4156" cx="0" cy="0" r="1" gradientUnits="userSpaceOnUse" gradientTransform="translate(25.5395 27.6281) rotate(180) scale(2.68802)">
<stop offset="0.06" stop-color="#FAF1D6"/>
<stop offset="0.24" stop-color="#F8EDD3"/>
<stop offset="0.42" stop-color="#F2E1CA"/>
<stop offset="0.61" stop-color="#E8CCBA"/>
<stop offset="0.8" stop-color="#DAB0A5"/>
<stop offset="0.95" stop-color="#CC928E"/>
</radialGradient>
<radialGradient id="paint8_radial_1_4156" cx="0" cy="0" r="1" gradientUnits="userSpaceOnUse" gradientTransform="translate(20.6812 19.3529) rotate(-180) scale(25.6376)">
<stop offset="0.06" stop-color="#66B0D8"/>
<stop offset="1" stop-color="#3F1F7D"/>
</radialGradient>
<radialGradient id="paint9_radial_1_4156" cx="0" cy="0" r="1" gradientUnits="userSpaceOnUse" gradientTransform="translate(19.2753 19.3661) rotate(-180) scale(25.067 25.067)">
<stop offset="0.06" stop-color="#66B0D8"/>
<stop offset="1" stop-color="#3F1F7D"/>
</radialGradient>
<radialGradient id="paint10_radial_1_4156" cx="0" cy="0" r="1" gradientUnits="userSpaceOnUse" gradientTransform="translate(43.0396 16.1768) rotate(-180) scale(68.6054 68.6054)">
<stop stop-color="#B10058"/>
<stop offset="1" stop-color="#5C2D7D" stop-opacity="0.6"/>
</radialGradient>
<radialGradient id="paint11_radial_1_4156" cx="0" cy="0" r="1" gradientUnits="userSpaceOnUse" gradientTransform="translate(15.8221 35.1348) rotate(-180) scale(14.7001 14.7001)">
<stop stop-color="#B10058"/>
<stop offset="1" stop-color="#5C2D7D" stop-opacity="0.6"/>
</radialGradient>
<radialGradient id="paint12_radial_1_4156" cx="0" cy="0" r="1" gradientUnits="userSpaceOnUse" gradientTransform="translate(36.8361 27.7551) rotate(180) scale(10.6044 10.6044)">
<stop offset="0.06" stop-color="#66B0D8"/>
<stop offset="1" stop-color="#3F1F7D"/>
</radialGradient>
<radialGradient id="paint13_radial_1_4156" cx="0" cy="0" r="1" gradientUnits="userSpaceOnUse" gradientTransform="translate(2.806 6.78608) rotate(-180) scale(16.6264 16.6263)">
<stop offset="0.06" stop-color="#66B0D8"/>
<stop offset="1" stop-color="#3F1F7D"/>
</radialGradient>
<radialGradient id="paint14_radial_1_4156" cx="0" cy="0" r="1" gradientUnits="userSpaceOnUse" gradientTransform="translate(20.1072 19.396) rotate(-180) scale(25.6376 25.6376)">
<stop offset="0.06" stop-color="#66B0D8"/>
<stop offset="1" stop-color="#3F1F7D"/>
</radialGradient>
<radialGradient id="paint15_radial_1_4156" cx="0" cy="0" r="1" gradientUnits="userSpaceOnUse" gradientTransform="translate(20.0954 19.282) rotate(-180) scale(24.4036 24.4036)">
<stop offset="0.06" stop-color="#66B0D8"/>
<stop offset="1" stop-color="#3F1F7D"/>
</radialGradient>
<radialGradient id="paint16_radial_1_4156" cx="0" cy="0" r="1" gradientUnits="userSpaceOnUse" gradientTransform="translate(15.5098 31.5855) rotate(-180) scale(4.93866 4.93866)">
<stop stop-color="#B10058"/>
<stop offset="1" stop-color="#5C2D7D" stop-opacity="0.6"/>
</radialGradient>
<radialGradient id="paint17_radial_1_4156" cx="0" cy="0" r="1" gradientUnits="userSpaceOnUse" gradientTransform="translate(26.2333 30.5537) rotate(180) scale(1.88567 1.88567)">
<stop stop-color="#B10058"/>
<stop offset="1" stop-color="#5C2D7D" stop-opacity="0.6"/>
</radialGradient>
<radialGradient id="paint18_radial_1_4156" cx="0" cy="0" r="1" gradientUnits="userSpaceOnUse" gradientTransform="translate(8.51927 23.8513) rotate(180) scale(2.00733 2.00733)">
<stop stop-color="#B10058"/>
<stop offset="1" stop-color="#5C2D7D" stop-opacity="0.6"/>
</radialGradient>
<radialGradient id="paint19_radial_1_4156" cx="0" cy="0" r="1" gradientUnits="userSpaceOnUse" gradientTransform="translate(31.6146 31.27) rotate(180) scale(3.00375)">
<stop offset="0.06" stop-color="#66B0D8"/>
<stop offset="1" stop-color="#3F1F7D"/>
</radialGradient>
<radialGradient id="paint20_radial_1_4156" cx="0" cy="0" r="1" gradientUnits="userSpaceOnUse" gradientTransform="translate(18.5106 21.7951) rotate(-180) scale(15.1549 15.1549)">
<stop offset="0.06" stop-color="#66B0D8"/>
<stop offset="1" stop-color="#3F1F7D"/>
</radialGradient>
<radialGradient id="paint21_radial_1_4156" cx="0" cy="0" r="1" gradientUnits="userSpaceOnUse" gradientTransform="translate(3.25402 16.5389) rotate(180) scale(4.34196)">
<stop offset="0.06" stop-color="#66B0D8"/>
<stop offset="1" stop-color="#3F1F7D"/>
</radialGradient>
<radialGradient id="paint22_radial_1_4156" cx="0" cy="0" r="1" gradientUnits="userSpaceOnUse" gradientTransform="translate(18.2854 26.8162) rotate(-180) scale(4.37673)">
<stop offset="0.06" stop-color="#66B0D8"/>
<stop offset="1" stop-color="#3F1F7D"/>
</radialGradient>
<radialGradient id="paint23_radial_1_4156" cx="0" cy="0" r="1" gradientUnits="userSpaceOnUse" gradientTransform="translate(25.1958 17.4032) rotate(-180) scale(21.8604 21.8604)">
<stop offset="0.06" stop-color="#66B0D8"/>
<stop offset="1" stop-color="#3F1F7D"/>
</radialGradient>
<radialGradient id="paint24_radial_1_4156" cx="0" cy="0" r="1" gradientUnits="userSpaceOnUse" gradientTransform="translate(25.1987 17.4019) rotate(-180) scale(21.8606 21.8605)">
<stop offset="0.06" stop-color="#66B0D8"/>
<stop offset="1" stop-color="#3F1F7D"/>
</radialGradient>
<radialGradient id="paint25_radial_1_4156" cx="0" cy="0" r="1" gradientUnits="userSpaceOnUse" gradientTransform="translate(25.1962 17.4036) rotate(-180) scale(21.8604 21.8604)">
<stop offset="0.06" stop-color="#66B0D8"/>
<stop offset="1" stop-color="#3F1F7D"/>
</radialGradient>
<radialGradient id="paint26_radial_1_4156" cx="0" cy="0" r="1" gradientUnits="userSpaceOnUse" gradientTransform="translate(25.1964 17.4043) rotate(-180) scale(21.8605 21.8606)">
<stop offset="0.06" stop-color="#66B0D8"/>
<stop offset="1" stop-color="#3F1F7D"/>
</radialGradient>
<radialGradient id="paint27_radial_1_4156" cx="0" cy="0" r="1" gradientUnits="userSpaceOnUse" gradientTransform="translate(25.1957 17.4031) rotate(-180) scale(21.8604 21.8605)">
<stop offset="0.06" stop-color="#66B0D8"/>
<stop offset="1" stop-color="#3F1F7D"/>
</radialGradient>
<radialGradient id="paint28_radial_1_4156" cx="0" cy="0" r="1" gradientUnits="userSpaceOnUse" gradientTransform="translate(25.1983 17.4025) rotate(-180) scale(21.8605 21.8604)">
<stop offset="0.06" stop-color="#66B0D8"/>
<stop offset="1" stop-color="#3F1F7D"/>
</radialGradient>
<radialGradient id="paint29_radial_1_4156" cx="0" cy="0" r="1" gradientUnits="userSpaceOnUse" gradientTransform="translate(25.1955 17.4028) rotate(-180) scale(21.8604 21.8605)">
<stop offset="0.06" stop-color="#66B0D8"/>
<stop offset="1" stop-color="#3F1F7D"/>
</radialGradient>
<radialGradient id="paint30_radial_1_4156" cx="0" cy="0" r="1" gradientUnits="userSpaceOnUse" gradientTransform="translate(25.1961 17.4033) rotate(-180) scale(21.8604 21.8605)">
<stop offset="0.06" stop-color="#66B0D8"/>
<stop offset="1" stop-color="#3F1F7D"/>
</radialGradient>
<radialGradient id="paint31_radial_1_4156" cx="0" cy="0" r="1" gradientUnits="userSpaceOnUse" gradientTransform="translate(25.1979 17.4048) rotate(-180) scale(21.8604 21.8605)">
<stop offset="0.06" stop-color="#66B0D8"/>
<stop offset="1" stop-color="#3F1F7D"/>
</radialGradient>
<radialGradient id="paint32_radial_1_4156" cx="0" cy="0" r="1" gradientUnits="userSpaceOnUse" gradientTransform="translate(19.1951 30.1877) rotate(-180) scale(4.31011 4.3101)">
<stop offset="0.06" stop-color="#FAF1D6"/>
<stop offset="0.24" stop-color="#F8EDD3"/>
<stop offset="0.42" stop-color="#F2E1CA"/>
<stop offset="0.61" stop-color="#E8CCBA"/>
<stop offset="0.8" stop-color="#DAB0A5"/>
<stop offset="0.95" stop-color="#CC928E"/>
</radialGradient>
<radialGradient id="paint33_radial_1_4156" cx="0" cy="0" r="1" gradientUnits="userSpaceOnUse" gradientTransform="translate(27.4471 7.99744) rotate(-179.981) scale(24.6677 24.6677)">
<stop offset="0.06" stop-color="#FAF1D6"/>
<stop offset="0.24" stop-color="#F8EDD3"/>
<stop offset="0.42" stop-color="#F2E1CA"/>
<stop offset="0.61" stop-color="#E8CCBA"/>
<stop offset="0.8" stop-color="#DAB0A5"/>
<stop offset="0.95" stop-color="#CC928E"/>
</radialGradient>
<radialGradient id="paint34_radial_1_4156" cx="0" cy="0" r="1" gradientUnits="userSpaceOnUse" gradientTransform="translate(23.5783 8.51572) rotate(-180) scale(21.0118 21.0118)">
<stop stop-color="#B10058"/>
<stop offset="1" stop-color="#5C2D7D" stop-opacity="0.6"/>
</radialGradient>
<radialGradient id="paint35_radial_1_4156" cx="0" cy="0" r="1" gradientUnits="userSpaceOnUse" gradientTransform="translate(26.5989 5.52863) rotate(-180) scale(19.4302)">
<stop offset="0.06" stop-color="#66B0D8"/>
<stop offset="0.89" stop-color="#93FCCE"/>
</radialGradient>
<radialGradient id="paint36_radial_1_4156" cx="0" cy="0" r="1" gradientUnits="userSpaceOnUse" gradientTransform="translate(26.4969 8.10082) rotate(-180) scale(17.6836 17.6836)">
<stop offset="0.06" stop-color="#66B0D8"/>
<stop offset="0.89" stop-color="#93FCCE"/>
</radialGradient>
<radialGradient id="paint37_radial_1_4156" cx="0" cy="0" r="1" gradientUnits="userSpaceOnUse" gradientTransform="translate(26.0223 5.52498) rotate(-180) scale(19.0913 19.0913)">
<stop offset="0.06" stop-color="#66B0D8"/>
<stop offset="1" stop-color="#3F1F7D"/>
</radialGradient>
<radialGradient id="paint38_radial_1_4156" cx="0" cy="0" r="1" gradientUnits="userSpaceOnUse" gradientTransform="translate(26.0168 6.2222) rotate(-180) scale(17.8806 17.8806)">
<stop offset="0.06" stop-color="#66B0D8"/>
<stop offset="1" stop-color="#3F1F7D"/>
</radialGradient>
<radialGradient id="paint39_radial_1_4156" cx="0" cy="0" r="1" gradientUnits="userSpaceOnUse" gradientTransform="translate(24.1716 4.88502) rotate(-180) scale(13.3619)">
<stop offset="0.06" stop-color="#FAF1D6"/>
<stop offset="0.24" stop-color="#F8EDD3"/>
<stop offset="0.42" stop-color="#F2E1CA"/>
<stop offset="0.61" stop-color="#E8CCBA"/>
<stop offset="0.8" stop-color="#DAB0A5"/>
<stop offset="0.95" stop-color="#CC928E"/>
</radialGradient>
<radialGradient id="paint40_radial_1_4156" cx="0" cy="0" r="1" gradientUnits="userSpaceOnUse" gradientTransform="translate(24.1726 4.88304) rotate(-180) scale(13.3619 13.3619)">
<stop offset="0.06" stop-color="#FAF1D6"/>
<stop offset="0.24" stop-color="#F8EDD3"/>
<stop offset="0.42" stop-color="#F2E1CA"/>
<stop offset="0.61" stop-color="#E8CCBA"/>
<stop offset="0.8" stop-color="#DAB0A5"/>
<stop offset="0.95" stop-color="#CC928E"/>
</radialGradient>
<radialGradient id="paint41_radial_1_4156" cx="0" cy="0" r="1" gradientUnits="userSpaceOnUse" gradientTransform="translate(25.8694 2.79156) rotate(-180) scale(8.53331 8.53331)">
<stop stop-color="#B10058"/>
<stop offset="1" stop-color="#5C2D7D" stop-opacity="0.6"/>
</radialGradient>
<radialGradient id="paint42_radial_1_4156" cx="0" cy="0" r="1" gradientUnits="userSpaceOnUse" gradientTransform="translate(26.24 1.86923) rotate(-180) scale(8.77083)">
<stop stop-color="#F20074"/>
<stop offset="0.14" stop-color="#ED0376"/>
<stop offset="0.31" stop-color="#DF0B7D"/>
<stop offset="0.49" stop-color="#C71887"/>
<stop offset="0.67" stop-color="#A62A96"/>
<stop offset="0.87" stop-color="#7B42A9"/>
<stop offset="0.9" stop-color="#7446AC"/>
</radialGradient>
<radialGradient id="paint43_radial_1_4156" cx="0" cy="0" r="1" gradientUnits="userSpaceOnUse" gradientTransform="translate(26.2289 1.88028) rotate(-180) scale(8.75635 8.75635)">
<stop stop-color="#F20074"/>
<stop offset="0.14" stop-color="#ED0376"/>
<stop offset="0.31" stop-color="#DF0B7D"/>
<stop offset="0.49" stop-color="#C71887"/>
<stop offset="0.67" stop-color="#A62A96"/>
<stop offset="0.87" stop-color="#7B42A9"/>
<stop offset="0.9" stop-color="#7446AC"/>
</radialGradient>
<radialGradient id="paint44_radial_1_4156" cx="0" cy="0" r="1" gradientUnits="userSpaceOnUse" gradientTransform="translate(22.9338 1.85718) rotate(-180) scale(6.14364 6.14364)">
<stop stop-color="#F20074"/>
<stop offset="0.14" stop-color="#ED0376"/>
<stop offset="0.31" stop-color="#DF0B7D"/>
<stop offset="0.49" stop-color="#C71887"/>
<stop offset="0.67" stop-color="#A62A96"/>
<stop offset="0.87" stop-color="#7B42A9"/>
<stop offset="0.9" stop-color="#7446AC"/>
</radialGradient>
<radialGradient id="paint45_radial_1_4156" cx="0" cy="0" r="1" gradientUnits="userSpaceOnUse" gradientTransform="translate(26.1527 3.00896) rotate(-180) scale(10.6304 10.6304)">
<stop stop-color="#F20074"/>
<stop offset="0.14" stop-color="#ED0376"/>
<stop offset="0.31" stop-color="#DF0B7D"/>
<stop offset="0.49" stop-color="#C71887"/>
<stop offset="0.67" stop-color="#A62A96"/>
<stop offset="0.87" stop-color="#7B42A9"/>
<stop offset="0.9" stop-color="#7446AC"/>
</radialGradient>
<radialGradient id="paint46_radial_1_4156" cx="0" cy="0" r="1" gradientUnits="userSpaceOnUse" gradientTransform="translate(26.152 3.00849) rotate(-180) scale(10.6304 10.6304)">
<stop stop-color="#F20074"/>
<stop offset="0.14" stop-color="#ED0376"/>
<stop offset="0.31" stop-color="#DF0B7D"/>
<stop offset="0.49" stop-color="#C71887"/>
<stop offset="0.67" stop-color="#A62A96"/>
<stop offset="0.87" stop-color="#7B42A9"/>
<stop offset="0.9" stop-color="#7446AC"/>
</radialGradient>
<radialGradient id="paint47_radial_1_4156" cx="0" cy="0" r="1" gradientUnits="userSpaceOnUse" gradientTransform="translate(26.1521 3.01038) rotate(-180) scale(10.6304 10.6304)">
<stop stop-color="#F20074"/>
<stop offset="0.14" stop-color="#ED0376"/>
<stop offset="0.31" stop-color="#DF0B7D"/>
<stop offset="0.49" stop-color="#C71887"/>
<stop offset="0.67" stop-color="#A62A96"/>
<stop offset="0.87" stop-color="#7B42A9"/>
<stop offset="0.9" stop-color="#7446AC"/>
</radialGradient>
<radialGradient id="paint48_radial_1_4156" cx="0" cy="0" r="1" gradientUnits="userSpaceOnUse" gradientTransform="translate(26.1516 3.00826) rotate(-180) scale(10.6304 10.6304)">
<stop stop-color="#F20074"/>
<stop offset="0.14" stop-color="#ED0376"/>
<stop offset="0.31" stop-color="#DF0B7D"/>
<stop offset="0.49" stop-color="#C71887"/>
<stop offset="0.67" stop-color="#A62A96"/>
<stop offset="0.87" stop-color="#7B42A9"/>
<stop offset="0.9" stop-color="#7446AC"/>
</radialGradient>
<radialGradient id="paint49_radial_1_4156" cx="0" cy="0" r="1" gradientUnits="userSpaceOnUse" gradientTransform="translate(13.7642 7.7831) rotate(-180) scale(7.41814 7.41813)">
<stop stop-color="#B10058"/>
<stop offset="1" stop-color="#5C2D7D" stop-opacity="0.6"/>
</radialGradient>
<radialGradient id="paint50_radial_1_4156" cx="0" cy="0" r="1" gradientUnits="userSpaceOnUse" gradientTransform="translate(13.5383 7.62581) rotate(-180) scale(7.38337)">
<stop stop-color="#F20074"/>
<stop offset="0.14" stop-color="#ED0376"/>
<stop offset="0.31" stop-color="#DF0B7D"/>
<stop offset="0.49" stop-color="#C71887"/>
<stop offset="0.67" stop-color="#A62A96"/>
<stop offset="0.87" stop-color="#7B42A9"/>
<stop offset="0.9" stop-color="#7446AC"/>
</radialGradient>
<radialGradient id="paint51_radial_1_4156" cx="0" cy="0" r="1" gradientUnits="userSpaceOnUse" gradientTransform="translate(13.3948 7.81619) rotate(-180) scale(7.17192 7.17192)">
<stop stop-color="#F20074"/>
<stop offset="0.14" stop-color="#ED0376"/>
<stop offset="0.31" stop-color="#DF0B7D"/>
<stop offset="0.49" stop-color="#C71887"/>
<stop offset="0.67" stop-color="#A62A96"/>
<stop offset="0.87" stop-color="#7B42A9"/>
<stop offset="0.9" stop-color="#7446AC"/>
</radialGradient>
<radialGradient id="paint52_radial_1_4156" cx="0" cy="0" r="1" gradientUnits="userSpaceOnUse" gradientTransform="translate(13.825 7.6268) rotate(-180) scale(6.87068 6.87068)">
<stop stop-color="#F20074"/>
<stop offset="0.14" stop-color="#ED0376"/>
<stop offset="0.31" stop-color="#DF0B7D"/>
<stop offset="0.49" stop-color="#C71887"/>
<stop offset="0.67" stop-color="#A62A96"/>
<stop offset="0.87" stop-color="#7B42A9"/>
<stop offset="0.9" stop-color="#7446AC"/>
</radialGradient>
<radialGradient id="paint53_radial_1_4156" cx="0" cy="0" r="1" gradientUnits="userSpaceOnUse" gradientTransform="translate(13.3791 7.56598) rotate(-180) scale(4.55051 4.55052)">
<stop stop-color="#F20074"/>
<stop offset="0.14" stop-color="#ED0376"/>
<stop offset="0.31" stop-color="#DF0B7D"/>
<stop offset="0.49" stop-color="#C71887"/>
<stop offset="0.67" stop-color="#A62A96"/>
<stop offset="0.87" stop-color="#7B42A9"/>
<stop offset="0.9" stop-color="#7446AC"/>
</radialGradient>
<radialGradient id="paint54_radial_1_4156" cx="0" cy="0" r="1" gradientUnits="userSpaceOnUse" gradientTransform="translate(13.6286 9.65474) rotate(-180) scale(10.613 10.6131)">
<stop stop-color="#F20074"/>
<stop offset="0.14" stop-color="#ED0376"/>
<stop offset="0.31" stop-color="#DF0B7D"/>
<stop offset="0.49" stop-color="#C71887"/>
<stop offset="0.67" stop-color="#A62A96"/>
<stop offset="0.87" stop-color="#7B42A9"/>
<stop offset="0.9" stop-color="#7446AC"/>
</radialGradient>
<radialGradient id="paint55_radial_1_4156" cx="0" cy="0" r="1" gradientUnits="userSpaceOnUse" gradientTransform="translate(13.6275 9.65219) rotate(-180) scale(10.613 10.6131)">
<stop stop-color="#F20074"/>
<stop offset="0.14" stop-color="#ED0376"/>
<stop offset="0.31" stop-color="#DF0B7D"/>
<stop offset="0.49" stop-color="#C71887"/>
<stop offset="0.67" stop-color="#A62A96"/>
<stop offset="0.87" stop-color="#7B42A9"/>
<stop offset="0.9" stop-color="#7446AC"/>
</radialGradient>
<radialGradient id="paint56_radial_1_4156" cx="0" cy="0" r="1" gradientUnits="userSpaceOnUse" gradientTransform="translate(13.6282 9.65132) rotate(-180) scale(10.6131 10.6131)">
<stop stop-color="#F20074"/>
<stop offset="0.14" stop-color="#ED0376"/>
<stop offset="0.31" stop-color="#DF0B7D"/>
<stop offset="0.49" stop-color="#C71887"/>
<stop offset="0.67" stop-color="#A62A96"/>
<stop offset="0.87" stop-color="#7B42A9"/>
<stop offset="0.9" stop-color="#7446AC"/>
</radialGradient>
<radialGradient id="paint57_radial_1_4156" cx="0" cy="0" r="1" gradientUnits="userSpaceOnUse" gradientTransform="translate(13.6278 9.65382) rotate(-180) scale(10.613 10.613)">
<stop stop-color="#F20074"/>
<stop offset="0.14" stop-color="#ED0376"/>
<stop offset="0.31" stop-color="#DF0B7D"/>
<stop offset="0.49" stop-color="#C71887"/>
<stop offset="0.67" stop-color="#A62A96"/>
<stop offset="0.87" stop-color="#7B42A9"/>
<stop offset="0.9" stop-color="#7446AC"/>
</radialGradient>
</defs>
</svg>
