<svg width="24" height="24" viewBox="0 0 24 24" fill="none" xmlns="http://www.w3.org/2000/svg">
<path d="M10.3854 0.315701C10.2511 0.112358 10.0212 -0.00675165 9.77752 0.000279603C9.53391 0.0075921 9.31149 0.14053 9.18966 0.351608C9.18966 0.351608 8.55404 1.4528 7.68315 2.96095C7.62638 3.05925 7.5714 3.15848 7.51791 3.25842L14.6989 6.8489L10.3854 0.315701Z" fill="white"/>
<path d="M23.2969 7.53122H22.835L21.7365 6.43251C20.7282 5.42433 19.0875 5.42447 18.0791 6.43256L15.6268 8.88501L1.01756 1.58048C0.799594 1.4715 0.540797 1.48312 0.333469 1.61128C0.126188 1.73934 0 1.96566 0 2.20936V5.22187C0 10.5101 3.89428 14.8447 8.9137 15.5982L1.7122 22.7997C1.51111 23.0008 1.45097 23.3032 1.55977 23.5659C1.66861 23.8287 1.92502 24 2.20936 24H6.72811C6.91463 24 7.09341 23.9259 7.22527 23.794L10.0319 20.9875H12.3765C17.5399 20.9875 21.7406 16.7868 21.7406 11.6234V10.0318L22.835 8.93742H23.2969C23.6852 8.93742 24 8.62261 24 8.23429C24 7.84598 23.6852 7.53122 23.2969 7.53122Z" fill="white"/>
</svg>
