<svg width="110" height="107" viewBox="0 0 110 107" fill="none" xmlns="http://www.w3.org/2000/svg">
<path style="mix-blend-mode:screen" d="M50.2857 100.571C78.0577 100.571 100.571 78.0577 100.571 50.2857C100.571 22.5137 78.0577 0 50.2857 0C22.5137 0 0 22.5137 0 50.2857C0 78.0577 22.5137 100.571 50.2857 100.571Z" fill="url(#paint0_radial_1_3988)"/>
<path style="mix-blend-mode:screen" d="M45.9981 91.5994C69.2443 91.5994 88.0892 72.7546 88.0892 49.5083C88.0892 26.2621 69.2443 7.41725 45.9981 7.41725C22.7519 7.41725 3.90704 26.2621 3.90704 49.5083C3.90704 72.7546 22.7519 91.5994 45.9981 91.5994Z" fill="url(#paint1_radial_1_3988)"/>
<path style="mix-blend-mode:screen" d="M50.2853 93.1245C73.9434 93.1245 93.1221 73.9458 93.1221 50.2877C93.1221 26.6296 73.9434 7.4509 50.2853 7.4509C26.6272 7.4509 7.44849 26.6296 7.44849 50.2877C7.44849 73.9458 26.6272 93.1245 50.2853 93.1245Z" fill="url(#paint2_radial_1_3988)"/>
<path fill-rule="evenodd" clip-rule="evenodd" d="M88.1034 32.8844C88.1034 32.8844 75.7632 19.323 59.3306 14.1255C59.3306 14.1255 29.862 19.2535 22.8701 31.0976C15.8783 42.9417 11.9064 63.9693 22.8701 76.8816C33.8339 89.7939 46.0895 93.9471 61.2173 91.408C76.3451 88.869 80.229 83.4208 80.229 83.4208C80.229 83.4208 81.0475 76.2954 87.5097 75.0189C87.5097 75.0189 96.4836 49.0717 88.1034 32.8844Z" fill="url(#paint3_radial_1_3988)"/>
<path fill-rule="evenodd" clip-rule="evenodd" d="M88.8589 53.4937C88.8639 58.0522 87.9695 62.567 86.2268 66.7794C84.4842 70.9917 81.9277 74.8189 78.7036 78.0416C75.4796 81.2644 71.6513 83.8194 67.4383 85.5603C63.2252 87.3012 58.7101 88.1938 54.1515 88.1869C53.5415 88.1869 52.9162 88.1782 52.3061 88.1391H52.2985C51.3921 88.0925 50.4922 88.0067 49.601 87.8971C44.2371 87.1667 39.1159 85.201 34.6409 82.1549C30.1658 79.1088 26.459 75.0654 23.8123 70.3431C23.6017 69.9599 23.3987 69.5691 23.187 69.1859C23.1881 69.1725 23.1855 69.1589 23.1794 69.1469C22.9623 68.7333 22.7647 68.311 22.578 67.8887H22.5694C21.9602 66.5567 21.4405 65.1856 21.0138 63.7844C20.6899 62.7645 20.4185 61.7286 20.2007 60.6809C20.1947 60.672 20.192 60.6612 20.1932 60.6505C20.0444 59.9069 19.912 59.1644 19.8099 58.4067C19.5743 56.7782 19.4568 55.1348 19.4583 53.4893C19.4583 52.5275 19.4898 51.5669 19.5755 50.6279C19.6222 50.0265 19.6927 49.4403 19.7709 48.8465C20.2093 45.4953 21.1449 42.2282 22.5466 39.1528C25.3038 33.0821 29.75 27.9331 35.3542 24.3207C40.9584 20.7083 47.4839 18.7852 54.1515 18.7809C54.5184 18.7809 54.8853 18.7896 55.2457 18.7972C55.6365 18.8124 56.0197 18.8286 56.4105 18.8514C56.8013 18.8742 57.1921 18.9068 57.5752 18.9535C59.1446 19.105 60.7014 19.3662 62.2343 19.7351C63.3285 20.001 64.4053 20.306 65.4626 20.6729C66.1812 20.915 66.8857 21.181 67.5805 21.4784C68.0972 21.6955 68.6052 21.9235 69.1133 22.1655C69.199 22.2046 69.2847 22.2437 69.3792 22.2915C70.075 22.6269 70.7545 22.9949 71.4189 23.377C73.9814 24.8471 76.3457 26.6386 78.4541 28.708C78.8297 29.0749 79.1977 29.4505 79.5646 29.8413C79.8067 30.1072 80.0487 30.3732 80.2843 30.6467C80.6827 31.1005 81.0735 31.577 81.4567 32.0579C86.2599 38.1695 88.8672 45.7194 88.8589 53.4926V53.4937Z" fill="url(#paint4_radial_1_3988)"/>
<path fill-rule="evenodd" clip-rule="evenodd" d="M85.2969 42.4641C81.8232 36.8194 71.273 35.5265 67.8786 38.7201C64.85 41.5696 67.6072 50.1767 70.7509 55.6434C70.7509 55.6434 61.2168 41.5881 67.5095 35.9444C73.8023 30.3008 86.6679 37.5174 89.3025 41.9582C91.937 46.3991 91.0165 54.8423 89.3025 57.8383C87.5884 60.8343 84.092 60.4989 84.092 60.4989C84.092 60.4989 92.3929 53.9999 85.2969 42.4641Z" fill="url(#paint5_radial_1_3988)"/>
<path style="mix-blend-mode:multiply" opacity="0.71" fill-rule="evenodd" clip-rule="evenodd" d="M21.1357 42.79C21.1357 42.79 26.3918 36.4126 30.2672 37.3016C34.1425 38.1907 32.2146 45.0902 32.2146 45.0902L36.1116 33.8725C36.1116 33.8725 28.9797 30.9709 26.6241 32.3093C26.6198 32.3093 22.8671 37.51 21.1357 42.79Z" fill="url(#paint6_linear_1_3988)"/>
<path fill-rule="evenodd" clip-rule="evenodd" d="M37.3389 80.7904C37.3389 80.7904 36.3619 82.1886 37.3389 84.2793C38.3158 86.37 42.6243 89.6124 52.2887 90.2985C62.7639 91.042 68.2219 84.6451 68.2958 83.4597C68.3696 82.2743 65.0587 81.2083 65.0587 81.2083C65.0587 81.2083 68.7712 81.3386 69.644 83.4749C70.5167 85.6112 63.438 93.0286 51.6406 91.9908C39.8432 90.953 34.015 83.9417 34.0834 82.0648C34.1517 80.1879 37.3389 80.7904 37.3389 80.7904Z" fill="url(#paint7_linear_1_3988)"/>
<path fill-rule="evenodd" clip-rule="evenodd" d="M30.2666 32.9346C30.2666 32.9346 28.6014 31.8154 26.6235 32.3104C23.9673 32.9758 20.6532 38.8333 20.3091 43.3827C20.0084 47.3156 21.4304 50.4723 22.263 50.9347C23.0956 51.3971 25.5923 50.9347 25.5923 50.9347C25.5923 50.9347 23.2921 52.5999 20.0019 51.4438C16.7117 50.2877 18.2954 40.5712 20.0019 36.4083C21.7083 32.2453 27.0284 29.5608 28.3701 29.8387C29.7118 30.1166 30.2666 32.9346 30.2666 32.9346Z" fill="url(#paint8_linear_1_3988)"/>
<path fill-rule="evenodd" clip-rule="evenodd" d="M64.3176 62.5907C63.485 61.4802 58.7196 60.3198 58.7196 60.3198L56.2891 63.0076C54.5099 63.5156 53.2605 69.1136 54.7867 70.3631C56.313 71.6125 62.3745 71.3346 63.2994 68.9747C64.2242 66.6148 65.1556 63.7012 64.3176 62.5907ZM57.0077 68.9302C55.666 67.5885 56.3444 64.0128 57.887 63.8413C59.969 63.61 61.1956 64.1669 61.6342 66.0611C62.0727 67.9554 58.3494 70.2708 57.0077 68.9302Z" fill="url(#paint9_linear_1_3988)"/>
<path fill-rule="evenodd" clip-rule="evenodd" d="M27.6532 77.6157C28.463 78.0737 31.3332 77.4517 31.3332 77.4517L31.6881 75.0896C32.4415 74.2701 31.1953 70.4219 29.9785 70.0789C28.7616 69.7359 25.7037 71.6149 26.0217 73.3474C26.3398 75.0799 26.8445 77.1554 27.6532 77.6157ZM29.3098 71.5997C30.4615 72.0578 31.3191 74.4796 30.5755 75.0213C29.5703 75.754 28.7442 75.754 27.8747 74.6956C27.0052 73.6372 28.158 71.1384 29.3098 71.5964V71.5997Z" fill="url(#paint10_linear_1_3988)"/>
<path style="mix-blend-mode:multiply" opacity="0.71" fill-rule="evenodd" clip-rule="evenodd" d="M87.2772 46.5328C87.2772 46.5328 81.3426 41.026 74.5288 41.2387C67.715 41.4515 66.8216 48.9579 69.4388 53.1198C72.056 57.2816 61.6697 49.8806 61.6697 49.8806V33.8746C61.6697 33.8746 74.2694 32.6349 80.9659 35.6602C87.6625 38.6856 87.2772 46.5328 87.2772 46.5328Z" fill="url(#paint11_linear_1_3988)"/>
<path style="mix-blend-mode:multiply" opacity="0.71" fill-rule="evenodd" clip-rule="evenodd" d="M66.628 22.8095C65.6738 24.1457 67.0264 28.9144 67.0264 28.9144L56.2863 23.8125L57.5759 18.958C59.1452 19.1095 60.7021 19.3707 62.2349 19.7396C63.3291 20.0056 64.406 20.3106 65.4633 20.6775C66.1819 20.9196 66.8864 21.1855 67.5811 21.4829C68.0978 21.7 68.6059 21.928 69.1139 22.1701C69.1997 22.2092 69.2854 22.2482 69.3798 22.296C70.0756 22.6314 70.7552 22.9994 71.4195 23.3815C69.7142 22.7237 67.2381 21.9573 66.628 22.8095Z" fill="url(#paint12_linear_1_3988)"/>
<path style="mix-blend-mode:multiply" opacity="0.71" fill-rule="evenodd" clip-rule="evenodd" d="M19.8893 58.9386C19.8893 58.9386 21.1409 57.4189 23.3629 58.055C25.585 58.6911 26.0767 60.911 26.0767 60.911L27.8831 54.4576L20.4766 52.8434L19.1251 54.1265L19.8893 58.9386Z" fill="url(#paint13_linear_1_3988)"/>
<path style="mix-blend-mode:multiply" opacity="0.71" fill-rule="evenodd" clip-rule="evenodd" d="M55.7249 67.3733C55.7249 67.3733 56.2264 65.7147 59.3299 65.7092C62.4334 65.7038 61.9765 67.7598 61.9765 67.7598L64.0867 63.7922L57.9307 60.109L52.286 62.5102L55.7249 67.3733Z" fill="url(#paint14_linear_1_3988)"/>
<path style="mix-blend-mode:multiply" opacity="0.71" fill-rule="evenodd" clip-rule="evenodd" d="M36.7598 84.1316C36.7598 84.1316 38.7593 82.7986 51.1972 82.0572C63.6351 81.3158 68.5883 85.507 68.5883 85.507L70.0082 79.6083L45.2029 74.3565L33.5673 77.7781L32.8845 80.8968L36.7598 84.1316Z" fill="url(#paint15_linear_1_3988)"/>
<path fill-rule="evenodd" clip-rule="evenodd" d="M22.8026 55.0361C22.8026 55.0361 20.8008 53.4849 18.6537 55.3271C16.6097 57.0813 16.6184 62.0356 18.0827 64.7646C19.3419 67.1136 23.0305 65.8208 23.0305 65.8208C23.0305 65.8208 20.0876 68.4662 17.7744 66.8466C15.4612 65.227 14.9987 56.2519 17.0341 53.7118C19.0694 51.1717 22.8026 55.0361 22.8026 55.0361Z" fill="url(#paint16_linear_1_3988)"/>
<path fill-rule="evenodd" clip-rule="evenodd" d="M92.6963 43.9231C91.9726 40.9816 90.9081 38.1346 89.5245 35.4398C89.0848 34.5713 88.6094 33.7192 88.1035 32.8834C85.0782 34.3564 80.4191 35.0598 73.9917 31.8141C65.3619 27.4633 61.1359 19.0104 59.3372 14.1201C58.4797 14.0116 57.6156 13.9226 56.7439 13.8639C56.2967 13.8346 55.8505 13.8118 55.4109 13.7977C55.0006 13.7901 54.5826 13.7825 54.1582 13.7825C46.5318 13.7915 39.0687 15.9927 32.6583 20.1241C26.2478 24.2555 21.1602 30.1427 18.0017 37.0843C16.3989 40.6032 15.3274 44.3405 14.8222 48.174C14.7343 48.8557 14.6616 49.5298 14.6105 50.218C14.502 51.2873 14.464 52.3891 14.464 53.4844C14.4645 55.3695 14.5991 57.2522 14.8667 59.1182C14.9839 59.9866 15.1381 60.8322 15.314 61.6811C15.3135 61.6937 15.3157 61.7063 15.3205 61.718C15.5706 62.9172 15.881 64.1031 16.2508 65.2709C16.7405 66.8701 17.3326 68.4361 18.0234 69.9593H18.0386C18.2503 70.45 18.4728 70.9254 18.7192 71.402C18.7266 71.4068 18.7325 71.4134 18.7365 71.4212C18.7405 71.429 18.7424 71.4377 18.742 71.4465C18.9765 71.8807 19.2099 72.3322 19.452 72.7643C22.4668 78.1779 26.7043 82.8126 31.8268 86.2991C36.9493 89.7856 42.8153 92.0276 48.9575 92.8464C49.9681 92.9789 51.0015 93.0744 52.0414 93.1254H52.049C52.7448 93.1688 53.4548 93.184 54.1582 93.184C63.7481 93.2048 73.0177 89.734 80.2356 83.4198C78.4413 79.5596 79.9208 72.0945 82.6965 71.9773C84.0588 71.9187 86.0617 73.2159 87.5163 75.0167C90.4571 70.4621 92.4343 65.3536 93.3263 60.0059C94.2183 54.6583 94.0062 49.1846 92.7029 43.922L92.6963 43.9231ZM19.3575 67.1066C14.4575 65.9201 15.8838 53.6461 19.453 53.4887C21.8119 53.3867 26.0671 57.3347 26.0671 60.9093C26.0671 64.4839 21.2626 67.5679 19.3575 67.1066ZM57.1673 69.7292C54.2092 69.0019 55.4717 64.1995 57.5124 63.495C59.398 62.8437 62.8738 64.3689 62.4668 66.5215C61.9121 69.4545 58.3169 70.0158 57.1673 69.7292ZM28.5671 76.2781C26.7456 75.87 26.0031 72.1629 27.2644 71.7678C28.4259 71.4031 30.7381 73.7499 30.4895 74.957C30.1432 76.6005 29.2759 76.4366 28.5671 76.2781ZM31.9789 45.7544C30.3452 50.002 22.1006 52.7495 20.8153 51.2992C18.7529 48.9773 18.4196 42.6411 20.6395 37.6086C23.1883 31.8141 26.6099 30.95 27.906 30.7883C29.2021 30.6266 35.1139 37.6086 31.9789 45.7544ZM49.7054 91.3234C38.9956 90.6124 32.0961 82.0498 36.0517 81.0826C50.4816 77.559 70.1642 81.1706 69.6442 83.4708C68.8312 87.0454 61.6971 92.1213 49.7054 91.3234ZM82.3166 61.223C70.9848 64.8194 61.7253 40.8153 67.445 37.0941C73.3632 33.234 83.7158 37.2276 86.7531 41.3135C89.303 44.7329 93.6483 57.6137 82.3166 61.223Z" fill="url(#paint17_radial_1_3988)"/>
<path style="mix-blend-mode:screen" d="M50.8943 53.5038C59.9111 47.237 62.9417 36.0001 57.6633 28.4055C52.3849 20.8109 40.7964 19.7345 31.7796 26.0014C22.7627 32.2682 19.7321 43.5052 25.0105 51.0998C30.2889 58.6943 41.8774 59.7707 50.8943 53.5038Z" fill="url(#paint18_radial_1_3988)"/>
<path fill-rule="evenodd" clip-rule="evenodd" d="M70.2562 18.9596C70.2562 18.9596 62.511 15.2992 61.3549 15.7942C60.1988 16.2892 64.1056 26.6006 72.5976 30.7853C81.6867 35.2652 86.7561 32.1715 86.7561 32.1715L84.8705 29.6986C84.8705 29.6986 87.7146 32.2257 88.1043 32.8825C88.1043 32.8825 83.2053 38.9028 71.5588 31.8154C59.3315 24.3731 59.3315 14.1214 59.3315 14.1214C59.3315 14.1214 63.9602 14.9551 70.2562 18.9596Z" fill="url(#paint19_radial_1_3988)"/>
<g style="mix-blend-mode:multiply">
<path fill-rule="evenodd" clip-rule="evenodd" d="M33.8863 23.7471C33.7278 23.8785 33.3826 24.126 33.6561 24.317C33.7299 24.3691 33.7951 24.3409 33.8732 24.3637C33.9514 24.3865 33.9493 24.4288 34.0209 24.4017C34.238 24.317 34.1544 23.6863 33.9037 23.8133L33.8863 23.7471Z" fill="#D1DEFF"/>
<path fill-rule="evenodd" clip-rule="evenodd" d="M25.5839 53.7948C25.4265 53.9261 25.0813 54.1736 25.3548 54.3647C25.4286 54.4168 25.4927 54.3896 25.5719 54.4113C25.6327 54.4287 25.6479 54.4765 25.7185 54.4504C25.941 54.3647 25.852 53.734 25.6012 53.861L25.5839 53.7948Z" fill="#D1DEFF"/>
<path fill-rule="evenodd" clip-rule="evenodd" d="M35.0345 26.0415C35.1296 25.9872 35.2366 25.957 35.346 25.9536C35.3699 26.0904 35.4959 26.3585 35.3005 26.4649C35.1365 26.5539 35.1854 26.2619 35.1083 26.1935L35.0345 26.0415Z" fill="#D1DEFF"/>
<path fill-rule="evenodd" clip-rule="evenodd" d="M37.2759 26.1071C37.4843 26.1896 37.6917 26.2765 37.8979 26.3676C37.9641 26.309 38.0651 26.3199 38.1433 26.2678C38.251 26.1849 38.3312 26.0714 38.3734 25.9421C38.432 25.7652 38.3419 25.6165 38.2648 25.484C38.2187 25.3788 38.1544 25.2825 38.0749 25.1996C37.9782 25.128 37.7894 25.1562 37.6885 25.1996C37.566 25.275 37.4633 25.3784 37.3888 25.5014C37.2957 25.6244 37.2363 25.7696 37.2162 25.9226C37.2223 25.9969 37.2449 26.069 37.2824 26.1334C37.32 26.1979 37.3716 26.2531 37.4334 26.2949L37.2759 26.1071Z" fill="#D1DEFF"/>
<path fill-rule="evenodd" clip-rule="evenodd" d="M39.1601 68.9462C39.3686 69.0287 39.5759 69.1152 39.7821 69.2057C39.8484 69.1471 39.9493 69.1579 40.0275 69.1069C40.1349 69.0237 40.215 68.9103 40.2576 68.7812C40.3163 68.6043 40.2251 68.4556 40.1491 68.3242C40.1032 68.2189 40.0389 68.1226 39.9591 68.0398C39.8625 67.9671 39.6736 67.9953 39.5727 68.0398C39.45 68.1149 39.3472 68.2184 39.273 68.3416C39.1799 68.4642 39.1205 68.609 39.1005 68.7617C39.1065 68.8361 39.1291 68.9081 39.1667 68.9726C39.2042 69.037 39.2558 69.0922 39.3176 69.134L39.1601 68.9462Z" fill="#D1DEFF"/>
<path fill-rule="evenodd" clip-rule="evenodd" d="M82.6126 67.5001C82.8225 67.5826 83.0302 67.6695 83.2357 67.7606C83.3019 67.702 83.4018 67.7129 83.4811 67.6608C83.5883 67.5774 83.6684 67.464 83.7112 67.3351C83.7698 67.1582 83.6786 67.0095 83.6026 66.877C83.5561 66.7721 83.4918 66.6759 83.4127 66.5926C83.3161 66.521 83.1272 66.5492 83.0262 66.5926C82.9038 66.668 82.8011 66.7714 82.7266 66.8944C82.6337 67.0171 82.5743 67.1619 82.554 67.3145C82.56 67.389 82.5826 67.4612 82.6202 67.5258C82.6578 67.5905 82.7093 67.6458 82.7711 67.6879L82.6126 67.5001Z" fill="#D1DEFF"/>
<path fill-rule="evenodd" clip-rule="evenodd" d="M31.2967 28.1161C31.2086 28.1785 31.1346 28.2588 31.0796 28.3517C31.1653 28.4602 31.2066 28.5601 31.3531 28.6024C31.3809 28.614 31.4114 28.6176 31.4411 28.6128C31.4709 28.608 31.4987 28.595 31.5214 28.5753C31.5822 28.5156 31.5496 28.4494 31.5659 28.3908C31.6061 28.2485 31.6451 28.2116 31.5659 28.0814C31.5171 28.0032 31.4834 27.9728 31.3987 27.9728C31.339 27.9728 31.2088 27.9891 31.1816 28.0564L31.2967 28.1161Z" fill="#D1DEFF"/>
<path fill-rule="evenodd" clip-rule="evenodd" d="M31.7729 31.4344C31.7577 31.4713 31.596 31.8805 31.8055 31.76C31.826 31.7443 31.8425 31.7241 31.854 31.701C31.8654 31.6778 31.8714 31.6523 31.8714 31.6265C31.8714 31.6007 31.8654 31.5752 31.854 31.5521C31.8425 31.5289 31.826 31.5087 31.8055 31.493C31.8055 31.48 31.8131 31.4669 31.8163 31.4528L31.7729 31.4344Z" fill="#D1DEFF"/>
<path fill-rule="evenodd" clip-rule="evenodd" d="M28.5566 51.677C28.5414 51.7129 28.3797 52.1221 28.5892 52.0027C28.6098 51.9872 28.6266 51.9672 28.6382 51.9441C28.6497 51.921 28.6557 51.8955 28.6557 51.8697C28.6557 51.8439 28.6497 51.8185 28.6382 51.7954C28.6266 51.7723 28.6098 51.7522 28.5892 51.7368C28.5892 51.7226 28.5968 51.7096 28.6 51.6966L28.5566 51.677Z" fill="#D1DEFF"/>
<path fill-rule="evenodd" clip-rule="evenodd" d="M39.1108 34.1597C39.0071 34.2918 38.9331 34.4447 38.8937 34.608C38.9664 34.664 39.0561 34.6931 39.1477 34.6905C39.2704 34.6851 39.2758 34.646 39.2802 34.5288C39.2986 34.4436 39.3048 34.3563 39.2986 34.2694C39.2758 34.176 39.1825 34.0805 39.075 34.1402L39.1108 34.1597Z" fill="#D1DEFF"/>
<path fill-rule="evenodd" clip-rule="evenodd" d="M33.4154 28.5183C33.4945 28.5904 33.5476 28.6865 33.5663 28.7919C33.4578 28.819 33.4415 28.7105 33.4252 28.6236C33.3992 28.4847 33.4632 28.527 33.5283 28.4163L33.5652 28.4239L33.4154 28.5183Z" fill="#D1DEFF"/>
<path fill-rule="evenodd" clip-rule="evenodd" d="M32.3191 24.14C32.2302 24.2011 32.1561 24.2812 32.102 24.3745C32.1541 24.4396 32.1291 24.5579 32.2518 24.5492C32.3386 24.5427 32.4092 24.4494 32.4516 24.3777C32.4916 24.3042 32.5117 24.2215 32.5101 24.1378C32.5101 24.0922 32.5101 23.8957 32.4287 24.0293L32.3191 24.14Z" fill="#D1DEFF"/>
<path fill-rule="evenodd" clip-rule="evenodd" d="M46.5011 21.875C46.5196 21.761 46.5513 21.6495 46.5955 21.5428C46.6107 21.5168 46.6487 21.494 46.6683 21.4669C46.7291 21.3778 46.7106 21.3583 46.8115 21.3583C46.8614 21.352 46.912 21.3559 46.9603 21.3697C47.0086 21.3835 47.0537 21.407 47.0927 21.4386C47.4053 21.6872 46.614 21.8794 46.5836 21.6395L46.5011 21.875Z" fill="#D1DEFF"/>
<path fill-rule="evenodd" clip-rule="evenodd" d="M49.1585 22.8563C49.1184 23.0364 49.0033 23.2796 49.1694 23.399C49.3127 23.501 49.6134 23.3393 49.7274 23.2362C49.9293 23.0516 50.1757 22.7021 49.9825 22.4448C49.8739 22.294 49.5482 22.1789 49.3659 22.1963C48.9881 22.2321 48.8785 22.6826 48.8231 23.0419L49.1585 22.8563Z" fill="#D1DEFF"/>
<path fill-rule="evenodd" clip-rule="evenodd" d="M33.1327 33.2001C33.0937 33.3803 32.9775 33.6234 33.1447 33.7428C33.288 33.8514 33.5887 33.6842 33.7016 33.5811C33.9046 33.3966 34.1499 33.047 33.9566 32.7898C33.8481 32.6389 33.5224 32.5238 33.3412 32.5412C32.9634 32.577 32.8527 33.0264 32.7984 33.3868L33.1327 33.2001Z" fill="#D1DEFF"/>
<path fill-rule="evenodd" clip-rule="evenodd" d="M77.4416 65.1347C77.4026 65.3149 77.2864 65.558 77.4536 65.6774C77.5969 65.786 77.8975 65.6188 78.0104 65.5146C78.2134 65.3301 78.4588 64.9816 78.2655 64.7244C78.1853 64.6431 78.0893 64.579 77.9835 64.5361C77.8777 64.4932 77.7642 64.4723 77.6501 64.4747C77.2712 64.5105 77.1616 64.961 77.1073 65.3214L77.4416 65.1347Z" fill="#D1DEFF"/>
<path fill-rule="evenodd" clip-rule="evenodd" d="M92.0114 58.7143C91.9712 58.8956 91.855 59.1387 92.0222 59.257C92.1655 59.3591 92.4662 59.1984 92.5802 59.0942C92.7821 58.9097 93.0285 58.5601 92.8353 58.3029C92.7546 58.2219 92.6584 58.1582 92.5524 58.1154C92.4465 58.0727 92.3329 58.0519 92.2187 58.0543C91.8409 58.0901 91.7313 58.5406 91.6759 58.901L92.0114 58.7143Z" fill="#D1DEFF"/>
<path fill-rule="evenodd" clip-rule="evenodd" d="M50.3208 19.2052C50.2795 18.8969 50.2242 18.5919 50.4988 18.4301C50.6475 18.3411 50.9222 18.3107 51.0633 18.4149C51.1668 18.5077 51.2531 18.6179 51.3184 18.7406C51.4128 18.8969 51.3879 18.898 51.339 19.0402C51.2305 19.3659 51.149 19.583 50.8223 19.583C50.3881 19.583 50.3262 19.2486 50.3208 18.8329V19.2052Z" fill="#D1DEFF"/>
<path fill-rule="evenodd" clip-rule="evenodd" d="M54.3047 24.6344C54.5379 24.5707 54.7485 24.4428 54.9126 24.2653C54.7422 24.1568 54.3698 23.9397 54.3047 24.2599V24.6344Z" fill="#D1DEFF"/>
<path fill-rule="evenodd" clip-rule="evenodd" d="M40.6093 73.8861C40.8428 73.8231 41.0536 73.6951 41.2172 73.517C41.0468 73.4085 40.6744 73.1914 40.6093 73.5116V73.8861Z" fill="#D1DEFF"/>
<path fill-rule="evenodd" clip-rule="evenodd" d="M66.0234 79.2153C66.2569 79.1522 66.4677 79.0243 66.6313 78.8462C66.462 78.7376 66.0886 78.5205 66.0234 78.8408V79.2153Z" fill="#D1DEFF"/>
<path fill-rule="evenodd" clip-rule="evenodd" d="M57.3759 29.4069C57.6114 29.1182 57.9501 28.5917 58.3756 28.8804C58.6231 29.0476 58.6937 29.4916 58.4571 29.6685C58.2561 29.8063 58.0288 29.901 57.7895 29.9464C57.6006 29.9985 57.3194 29.8737 57.3759 29.5936V29.4069Z" fill="#D1DEFF"/>
<path fill-rule="evenodd" clip-rule="evenodd" d="M34.8856 61.1231C35.1201 60.8343 35.4587 60.3079 35.8853 60.5966C36.1328 60.7649 36.2034 61.2088 35.9668 61.3847C35.7653 61.5224 35.5377 61.6173 35.2981 61.6637C35.1103 61.7158 34.8281 61.5899 34.8856 61.3098V61.1231Z" fill="#D1DEFF"/>
<path fill-rule="evenodd" clip-rule="evenodd" d="M72.4909 75.8672C72.7253 75.5784 73.0651 75.0519 73.4906 75.3407C73.7381 75.5079 73.8087 75.9518 73.572 76.1288C73.3549 76.2927 73.152 76.3383 72.9045 76.4067C72.7156 76.4588 72.4344 76.3339 72.4909 76.0539V75.8672Z" fill="#D1DEFF"/>
<path fill-rule="evenodd" clip-rule="evenodd" d="M40.9202 36.2724C41.1546 35.9837 41.4933 35.4572 41.9199 35.746C42.1663 35.9142 42.238 36.3582 42.0013 36.5351C41.7842 36.699 41.5801 36.7446 41.3326 36.813C41.1438 36.8651 40.8626 36.7403 40.9202 36.4602V36.2724Z" fill="#D1DEFF"/>
<path fill-rule="evenodd" clip-rule="evenodd" d="M54.4996 23.7231C54.734 23.4343 55.0727 22.9078 55.4993 23.1966C55.7468 23.3638 55.8174 23.8077 55.5807 23.9847C55.3795 24.1222 55.1524 24.2171 54.9132 24.2637C54.7232 24.3147 54.442 24.1898 54.4996 23.9098V23.7231Z" fill="#D1DEFF"/>
<path fill-rule="evenodd" clip-rule="evenodd" d="M88.2516 39.22C88.486 38.9312 88.8247 38.4047 89.2513 38.6935C89.4977 38.8606 89.5694 39.3046 89.3328 39.4816C89.1156 39.6455 88.9116 39.6911 88.6641 39.7595C88.4752 39.8116 88.194 39.6867 88.2516 39.4067V39.22Z" fill="#D1DEFF"/>
<path fill-rule="evenodd" clip-rule="evenodd" d="M52.9227 49.3476C53.1571 49.0588 53.4958 48.5324 53.9224 48.8211C54.1688 48.9894 54.2405 49.4333 54.0038 49.6103C53.8021 49.7472 53.5745 49.8418 53.3351 49.8882C53.1463 49.9403 52.8651 49.8144 52.9227 49.5354V49.3476Z" fill="#D1DEFF"/>
<path fill-rule="evenodd" clip-rule="evenodd" d="M37.161 20.5122C36.3295 21.0397 34.9291 21.6943 34.788 22.8363C34.7023 23.5256 35.0203 23.9305 35.6423 24.229C36.1721 24.483 36.9667 24.5047 37.4986 24.2366C38.2584 23.8523 39.1399 23.2173 39.4829 22.4075C39.7304 21.8224 39.6902 21.4207 39.4145 20.8411C39.2669 20.5295 38.9727 20.1561 38.6395 20.04C37.5757 19.6709 36.9374 20.7151 36.1504 21.1852L37.161 20.5122Z" fill="#D1DEFF"/>
<path fill-rule="evenodd" clip-rule="evenodd" d="M40.5132 24.8615C40.6723 24.9169 40.8151 25.0109 40.9289 25.1351C40.765 25.1915 40.5903 25.3207 40.422 25.261C40.2049 25.1828 40.1647 24.9766 40.2136 24.7704C40.2407 24.6618 40.4448 24.4577 40.5609 24.5077C40.6195 24.5326 40.6304 24.6162 40.6499 24.664C40.6901 24.7725 40.6934 24.7486 40.6358 24.8615H40.5132Z" fill="#D1DEFF"/>
<path fill-rule="evenodd" clip-rule="evenodd" d="M92.2454 49.8717C92.4045 49.927 92.5471 50.0214 92.6601 50.1463C92.4973 50.2017 92.3214 50.3308 92.1542 50.2711C91.9371 50.1941 91.897 49.9878 91.9458 49.7805C91.973 49.6665 92.176 49.4679 92.2921 49.5178C92.3518 49.5428 92.3627 49.6263 92.3822 49.6741C92.4224 49.7827 92.4245 49.7599 92.367 49.8717H92.2454Z" fill="#D1DEFF"/>
<path fill-rule="evenodd" clip-rule="evenodd" d="M30.9714 25.8891C30.5144 26.2896 30.0834 26.7694 29.8414 27.3437C29.7176 27.6357 29.9369 27.6498 30.2028 27.5988C30.7163 27.4978 31.2341 27.3556 31.7421 27.2254C32.0428 27.1483 32.4748 26.9898 32.6832 26.7336C32.8432 26.5073 32.9115 26.2288 32.8743 25.9542C32.8255 25.609 32.5801 25.4755 32.2675 25.3887C31.5521 25.1911 30.6338 25.6611 30.3678 26.32L30.9714 25.8891Z" fill="#D1DEFF"/>
<path fill-rule="evenodd" clip-rule="evenodd" d="M32.8345 28.9145C33.0857 28.9195 33.3322 28.9835 33.5542 29.1012C33.4902 29.1772 33.5108 29.2803 33.4771 29.3704C33.4148 29.5106 33.3125 29.6291 33.183 29.7113C33.0715 29.7766 32.9477 29.8181 32.8193 29.8332C32.691 29.8484 32.5609 29.8368 32.4372 29.7992C31.7707 29.5463 32.7922 28.756 33.0169 29.0394L32.8345 28.9145Z" fill="#D1DEFF"/>
<path fill-rule="evenodd" clip-rule="evenodd" d="M45.4401 18.5375C45.6887 18.4181 45.9123 18.265 46.1805 18.2194C46.4804 18.1573 46.7851 18.121 47.0912 18.1109C47.2497 18.1109 47.6035 18.0967 47.5004 18.3551C47.3919 18.6352 46.7873 18.8979 46.5474 19.014C46.137 19.2072 45.7506 19.4015 45.2903 19.4482C45.058 19.4721 44.6694 19.4884 44.538 19.2561C44.4295 19.0607 44.4794 18.9 44.588 18.7187C44.685 18.5508 44.8421 18.4259 45.0276 18.3692C45.1221 18.3312 45.6561 18.189 45.6789 18.3551L45.4401 18.5375Z" fill="#D1DEFF"/>
<path fill-rule="evenodd" clip-rule="evenodd" d="M41.3018 18.6584C41.1932 18.7376 40.3509 19.2011 40.7514 19.4063C40.9685 19.5149 41.3897 19.4834 41.609 19.39C41.8033 19.3075 41.9998 19.1794 41.8782 18.9558C41.6307 18.5032 41.0098 18.7648 40.6939 18.9558L41.3018 18.6584Z" fill="#D1DEFF"/>
<path fill-rule="evenodd" clip-rule="evenodd" d="M56.8672 14.9232C56.6772 15.0611 55.2182 15.8709 55.913 16.2258C56.2864 16.4136 57.0202 16.3594 57.399 16.1976C57.7366 16.0543 58.0786 15.8329 57.8669 15.4454C57.4327 14.6616 56.3656 15.1132 55.812 15.4551L56.8672 14.9232Z" fill="#D1DEFF"/>
<path fill-rule="evenodd" clip-rule="evenodd" d="M29.6778 50.82C29.7397 51.1663 29.8113 51.5451 30.112 51.7731C30.4127 52.001 30.7774 51.9153 31.0836 51.734C31.3104 51.6005 31.5243 51.4572 31.7468 51.3204C31.876 51.2412 31.99 51.2206 31.9954 51.036C32.0008 50.8515 31.8184 50.5703 31.7045 50.4205C31.5375 50.2143 31.3234 50.0513 31.0803 49.9451C30.6146 49.7725 29.7277 49.9451 29.7386 50.5768L29.6778 50.82Z" fill="#D1DEFF"/>
<path fill-rule="evenodd" clip-rule="evenodd" d="M57.0839 51.7002C57.2044 52.3711 57.3423 53.1049 57.9252 53.5456C58.5298 54.0059 59.2138 53.8192 59.8075 53.4696C60.2483 53.2102 60.664 52.9334 61.0938 52.6685C61.3446 52.5133 61.5639 52.4753 61.5758 52.116C61.5877 51.7317 61.2328 51.215 61.0114 50.9219C60.6881 50.5219 60.2729 50.206 59.801 50.0014C58.9 49.6649 57.1806 50.0014 57.2023 51.2248L57.0839 51.7002Z" fill="#D1DEFF"/>
</g>
<path style="mix-blend-mode:screen" fill-rule="evenodd" clip-rule="evenodd" d="M68.3034 38.1185C68.3034 38.1185 103.564 26.219 109.185 32.3196C115.754 39.4472 80.4558 61.4897 80.4558 61.4897C80.4558 61.4897 73.1047 61.9912 68.2708 51.4454C66.838 48.33 65.4941 41.8472 68.3034 38.1185Z" fill="url(#paint20_linear_1_3988)"/>
<path style="mix-blend-mode:screen" fill-rule="evenodd" clip-rule="evenodd" d="M37.3396 80.7891C37.3396 80.7891 43.3186 106.197 52.8017 106.852C62.2849 107.508 68.2965 83.454 68.2965 83.454C68.2965 83.454 63.6971 79.6601 52.8017 79.6601C41.9064 79.6601 37.3396 80.7891 37.3396 80.7891Z" fill="url(#paint21_linear_1_3988)"/>
<path style="mix-blend-mode:screen" fill-rule="evenodd" clip-rule="evenodd" d="M27.8736 32.5381C27.8736 32.5381 18.0366 30.7861 15.0395 37.1537C11.4822 44.7122 23.0376 51.1179 23.0376 51.1179C23.0376 51.1179 29.0546 51.1428 31.9845 45.7543C34.9143 40.3658 31.5047 32.5652 27.8736 32.5381Z" fill="url(#paint22_linear_1_3988)"/>
<path style="mix-blend-mode:screen" fill-rule="evenodd" clip-rule="evenodd" d="M18.7884 55.0525C18.7884 55.0525 1.508 61.0555 1.508 64.4705C1.508 68.7551 23.0317 65.8209 23.0317 65.8209C23.0317 65.8209 25.5946 63.9755 26.0712 60.9089C26.5477 57.8423 22.8374 54.6281 21.7182 54.5347C20.5991 54.4414 19.3463 54.7095 18.7884 55.0525Z" fill="url(#paint23_linear_1_3988)"/>
<path style="mix-blend-mode:screen" fill-rule="evenodd" clip-rule="evenodd" d="M62.2357 19.7367C62.2357 19.7367 69.4489 12.7481 78.3361 14.9203C87.2232 17.0924 81.7881 33.3459 81.7881 33.3459C81.7881 33.3459 75.5713 33.0658 69.5694 28.9137C63.5676 24.7616 62.2357 19.7367 62.2357 19.7367Z" fill="url(#paint24_linear_1_3988)"/>
<path style="mix-blend-mode:screen" opacity="0.5" fill-rule="evenodd" clip-rule="evenodd" d="M79.6102 77.0677C79.6102 77.0677 93.3225 91.3585 94.8205 89.0431C96.3022 86.7538 83.7309 72.1513 83.7309 72.1513C83.7309 72.1513 81.4382 70.5198 79.6102 77.0677Z" fill="url(#paint25_linear_1_3988)"/>
<path fill-rule="evenodd" clip-rule="evenodd" d="M74.3311 19.4319C74.0858 19.776 74.0587 19.7967 74.0359 20.1386C74.0239 20.3199 73.9816 20.6206 74.05 20.7899C74.1661 21.083 74.5928 21.3479 74.9043 21.311C75.1648 21.2795 75.4753 21.0939 75.7163 20.9853C76.0235 20.8453 76.1776 20.6173 76.309 20.3188C76.4403 20.0203 76.36 19.8227 76.2341 19.5285C76.113 19.2349 75.9381 18.9665 75.7184 18.7372C75.4666 18.493 75.1355 18.3562 74.8251 18.5613C74.5483 18.7448 74.2421 19.1909 74.2324 19.5285L74.3311 19.4319Z" fill="#FFC445"/>
<path fill-rule="evenodd" clip-rule="evenodd" d="M14.7289 62.1073C14.5997 62.2897 14.5856 62.3005 14.5736 62.4807C14.5549 62.5949 14.5575 62.7116 14.5812 62.8248C14.6226 62.9085 14.687 62.9787 14.7667 63.0274C14.8464 63.076 14.9383 63.101 15.0317 63.0995C15.1811 63.0616 15.3246 63.0036 15.4583 62.9269C15.5309 62.8917 15.5958 62.8425 15.6492 62.7822C15.7027 62.7218 15.7437 62.6515 15.7699 62.5752C15.8393 62.4178 15.797 62.3147 15.7319 62.1594C15.6676 62.0048 15.5753 61.8635 15.4594 61.7426C15.327 61.6145 15.1522 61.5428 14.9894 61.6503C14.9058 61.7098 14.835 61.7855 14.7815 61.873C14.728 61.9605 14.6927 62.0579 14.6778 62.1594L14.7289 62.1073Z" fill="#FFC445"/>
<path fill-rule="evenodd" clip-rule="evenodd" d="M76.9969 23.5777C77.2357 23.643 77.4496 23.7779 77.6113 23.9653C77.4453 24.0109 77.4768 24.2171 77.2987 24.2736C77.0936 24.3387 76.9731 24.1162 76.7994 24.165L76.9969 23.5777Z" fill="#FF8800"/>
<path fill-rule="evenodd" clip-rule="evenodd" d="M60.1152 94.6227C60.3543 94.6872 60.5685 94.8222 60.7296 95.0103C60.5635 95.0558 60.595 95.2621 60.417 95.3185C60.2119 95.3837 60.0913 95.1611 59.9177 95.21L60.1152 94.6227Z" fill="#FFC445"/>
<path fill-rule="evenodd" clip-rule="evenodd" d="M81.9327 15.4829C81.8719 15.6664 81.5387 16.3177 81.6375 16.5294C81.7461 16.7736 82.05 16.6683 82.2291 16.5489C82.3325 16.4603 82.4314 16.3664 82.5254 16.2678C82.6177 16.194 82.7426 16.1592 82.8272 16.08C82.9119 16.0007 82.9357 15.8705 83.0139 15.7771C83.0921 15.6838 83.2311 15.6165 83.3081 15.5199C83.5252 15.2387 83.4514 14.8186 83.091 14.7155C82.4538 14.5299 82.2031 15.0574 81.8296 15.4829H81.9327Z" fill="#FFC445"/>
<path fill-rule="evenodd" clip-rule="evenodd" d="M84.6796 78.484C84.6177 78.6685 84.2855 79.3187 84.3832 79.5304C84.4972 79.7746 84.7957 79.6693 84.9759 79.5499C85.0953 79.4707 85.1615 79.3567 85.2722 79.2688C85.3634 79.195 85.4894 79.1602 85.5729 79.0821C85.6565 79.0039 85.6815 78.8715 85.7597 78.7781C85.8378 78.6848 85.9768 78.6175 86.0538 78.5209C86.2709 78.2397 86.1971 77.8196 85.8367 77.7165C85.1985 77.5309 84.9477 78.0584 84.5754 78.484H84.6796Z" fill="#FFC445"/>
<path fill-rule="evenodd" clip-rule="evenodd" d="M49.4593 83.066C49.3974 83.2505 49.0652 83.9008 49.1629 84.1124C49.2715 84.3567 49.5754 84.2514 49.7556 84.1331C49.875 84.0538 49.9412 83.9387 50.052 83.8508C50.1442 83.777 50.2691 83.7423 50.3527 83.6641C50.4362 83.586 50.4612 83.4546 50.5393 83.3602C50.6175 83.2657 50.7564 83.2006 50.8335 83.104C51.0506 82.8217 50.9779 82.4016 50.6219 82.2985C49.9836 82.114 49.7328 82.6415 49.3605 83.066H49.4593Z" fill="#FFC445"/>
<path fill-rule="evenodd" clip-rule="evenodd" d="M87.2663 13.8031C87.4324 13.4384 87.4889 13.2527 87.8373 13.0845C88.0121 13.0009 88.2574 12.9759 88.2498 13.2571C88.2498 13.3852 88.0392 13.6598 87.9588 13.7543C87.8101 13.9301 87.6017 13.9453 87.3824 13.8845C87.377 13.8574 87.3716 13.8302 87.3651 13.8031H87.2663Z" fill="#FFC445"/>
<path fill-rule="evenodd" clip-rule="evenodd" d="M23.8193 42.172C23.9854 41.8073 24.0419 41.6217 24.3903 41.4534C24.5651 41.3698 24.8104 41.3449 24.8028 41.626C24.8028 41.7541 24.5922 42.0288 24.5119 42.1232C24.3632 42.299 24.1547 42.3142 23.9355 42.2535C23.93 42.2263 23.9246 42.1992 23.9181 42.172H23.8193Z" fill="#FFC445"/>
<path fill-rule="evenodd" clip-rule="evenodd" d="M50.174 100.604C50.3053 100.316 50.3509 100.17 50.6266 100.036C50.7645 99.9687 50.9588 99.9513 50.9523 100.172C50.9523 100.274 50.7851 100.491 50.7211 100.566C50.6038 100.705 50.4388 100.718 50.2651 100.674C50.2651 100.653 50.2564 100.631 50.251 100.609L50.174 100.604Z" fill="#FFC445"/>
<path fill-rule="evenodd" clip-rule="evenodd" d="M83.8261 45.0778C83.7719 44.8727 83.3279 45.2711 83.482 45.1104C83.6522 44.9643 83.8465 44.8489 84.0563 44.7696C84.2491 44.6764 84.4705 44.6616 84.6739 44.7283C85.0146 44.8243 85.3097 45.0392 85.5055 45.334C86.0048 46.1851 85.3285 46.9276 84.5198 47.2435C83.7665 47.5365 82.7135 47.3911 82.5387 46.4662C82.4888 46.2068 82.6212 45.6716 82.834 45.4893C83.0467 45.3069 83.5407 45.1234 83.8261 45.0746V45.0778Z" fill="#FF8800"/>
<path fill-rule="evenodd" clip-rule="evenodd" d="M22.4147 61.3857C22.3821 61.2315 22.1227 61.529 22.2139 61.4096C22.3079 61.3041 22.4215 61.2179 22.5483 61.1556C22.6013 61.1214 22.6618 61.1008 22.7247 61.0955C22.7875 61.0902 22.8507 61.1004 22.9086 61.1252C23.1219 61.2085 23.2956 61.3694 23.395 61.5757C23.6859 62.2096 23.2919 62.7621 22.8197 62.9966C22.3789 63.2137 21.7645 63.1052 21.6625 62.418C21.6332 62.2248 21.7102 61.8264 21.8351 61.694C21.9996 61.5446 22.1988 61.4386 22.4147 61.3857Z" fill="#FFC445"/>
<path fill-rule="evenodd" clip-rule="evenodd" d="M26.1021 47.5352C26.1705 47.4495 25.8948 47.4419 26.0001 47.4375C26.0987 47.4415 26.1956 47.4644 26.2855 47.5048C26.3277 47.5183 26.366 47.5419 26.397 47.5735C26.428 47.6051 26.4509 47.6437 26.4636 47.6861C26.5134 47.8385 26.5037 48.0041 26.4364 48.1496C26.2193 48.5893 25.7493 48.6229 25.4117 48.4753C25.098 48.3353 24.882 47.9542 25.2087 47.5928C25.3352 47.4668 25.4996 47.386 25.6766 47.3626C25.8308 47.3853 25.9769 47.4457 26.1021 47.5385V47.5352Z" fill="#FFC445"/>
<path fill-rule="evenodd" clip-rule="evenodd" d="M60.2703 83.4287C60.2595 83.2518 59.8361 83.5058 59.9848 83.3994C60.1471 83.3077 60.3242 83.2452 60.508 83.2149C60.6801 83.1695 60.8631 83.1928 61.0183 83.28C61.281 83.4131 61.4871 83.6361 61.599 83.9085C61.8682 84.6836 61.1984 85.1796 60.4874 85.3066C59.8253 85.425 58.9894 85.1362 58.9959 84.3525C58.9959 84.1354 59.1924 83.7185 59.3943 83.6067C59.6703 83.4857 59.969 83.425 60.2703 83.4287Z" fill="#FF8800"/>
<path fill-rule="evenodd" clip-rule="evenodd" d="M19.9978 36.4071C19.9424 36.2009 19.8947 36.1054 20.0488 35.9447C20.2184 35.7987 20.4124 35.6837 20.6219 35.6049C20.8147 35.512 21.0359 35.4968 21.2396 35.5626C21.5807 35.6582 21.8762 35.8732 22.0722 36.1683C22.5704 37.0205 21.8952 37.763 21.0865 38.0778C20.3321 38.3719 19.2802 38.2265 19.1044 37.3005C19.0555 37.0411 19.188 36.5059 19.4007 36.3236C19.6135 36.1412 20.1074 35.9577 20.3929 35.9089L19.9978 36.4071Z" fill="#FFC445"/>
<path fill-rule="evenodd" clip-rule="evenodd" d="M91.8094 41.1552C91.8007 41.7566 91.8691 41.712 92.3999 41.826C92.7929 41.9096 93.1174 41.6751 93.4659 41.5253C93.663 41.4395 93.8342 41.3032 93.962 41.1302C94.115 40.9131 94.1041 40.8252 93.9066 40.6613C93.7721 40.5298 93.609 40.4314 93.4301 40.3736C93.3215 40.3519 93.2205 40.3649 93.1152 40.3432C93.0468 40.328 92.9969 40.2759 92.8981 40.2618C92.6539 40.2238 92.0884 40.4073 91.8973 40.5571C91.7334 40.6862 91.5641 41.0488 91.6075 41.254L91.8094 41.1552Z" fill="#FFC445"/>
<path fill-rule="evenodd" clip-rule="evenodd" d="M98.0122 43.8883C97.9837 43.8257 97.9714 43.7571 97.9763 43.6885C98.0599 43.6343 98.0697 43.5235 98.1728 43.4714C98.21 43.4516 98.2511 43.4403 98.2932 43.4384C98.3352 43.4366 98.3772 43.4441 98.416 43.4606C98.5614 43.5355 98.556 43.7189 98.4854 43.8351C98.4333 43.9208 98.3845 44.0652 98.2857 44.1184C98.1598 44.1868 97.9709 44.0381 97.9318 43.9252L98.0122 43.8883Z" fill="#FFC445"/>
<path fill-rule="evenodd" clip-rule="evenodd" d="M90.7292 83.2917C90.7011 83.2291 90.6891 83.1604 90.6944 83.092C90.7769 83.0377 90.7867 82.927 90.8898 82.8748C90.9272 82.855 90.9685 82.8437 91.0107 82.8418C91.053 82.84 91.0951 82.8475 91.1341 82.864C91.1641 82.8833 91.1898 82.9085 91.2096 82.9382C91.2295 82.9678 91.2431 83.0012 91.2497 83.0362C91.2562 83.0713 91.2554 83.1074 91.2475 83.1421C91.2395 83.1769 91.2246 83.2097 91.2035 83.2385C91.1514 83.3253 91.1026 83.4686 91.0027 83.5229C90.8768 83.5902 90.689 83.4415 90.6488 83.3297L90.7292 83.2917Z" fill="#FFC445"/>
<path fill-rule="evenodd" clip-rule="evenodd" d="M57.967 85.7071C57.9389 85.644 57.927 85.575 57.9323 85.5062C58.0148 85.452 58.0246 85.3423 58.1288 85.2891C58.1661 85.2697 58.2072 85.2587 58.2493 85.257C58.2913 85.2553 58.3332 85.263 58.3719 85.2794C58.4019 85.2987 58.4277 85.3239 58.4476 85.3535C58.4674 85.3832 58.4811 85.4165 58.4876 85.4516C58.4941 85.4867 58.4933 85.5227 58.4854 85.5575C58.4775 85.5923 58.4625 85.6251 58.4414 85.6539C58.3893 85.7396 58.3404 85.884 58.2406 85.9372C58.1147 86.0056 57.9269 85.8569 57.8867 85.744L57.967 85.7071Z" fill="#FFC445"/>
<path fill-rule="evenodd" clip-rule="evenodd" d="M13.4352 35.7581C13.4071 35.6951 13.3951 35.626 13.4004 35.5573C13.4829 35.503 13.4927 35.3933 13.5969 35.3402C13.6342 35.3207 13.6754 35.3097 13.7174 35.3081C13.7594 35.3064 13.8013 35.314 13.8401 35.3304C13.9844 35.4053 13.9801 35.5876 13.9095 35.7049C13.8574 35.7906 13.8086 35.9339 13.7087 35.9882C13.5828 36.0566 13.395 35.9079 13.3549 35.795L13.4352 35.7581Z" fill="#FFC445"/>
<path fill-rule="evenodd" clip-rule="evenodd" d="M80.7493 55.0769C80.911 54.7979 80.9468 54.6753 81.2431 54.6058C81.3897 54.5722 81.6133 54.5385 81.7414 54.6286C81.9433 54.7719 82.0074 55.3364 81.914 55.5491C81.7783 55.8574 81.355 55.8075 81.1227 55.6968C80.759 55.5231 80.657 55.3624 80.6505 54.9792L80.7493 55.0769Z" fill="#FFC445"/>
<path fill-rule="evenodd" clip-rule="evenodd" d="M69.7769 41.042C69.7505 41.0725 69.7305 41.1081 69.7182 41.1465C69.7059 41.1849 69.7015 41.2255 69.7052 41.2656C69.8833 41.384 70.4271 41.2591 70.3913 40.9867C70.374 40.8521 70.21 40.8075 70.0971 40.7934C69.8648 40.7641 69.7476 40.9693 69.6282 41.1408L69.7769 41.042Z" fill="#FFC445"/>
<path fill-rule="evenodd" clip-rule="evenodd" d="M9.42949 40.2499C9.40311 40.2804 9.38318 40.316 9.37087 40.3544C9.35856 40.3928 9.35415 40.4333 9.35788 40.4735C9.53591 40.5918 10.0797 40.467 10.0439 40.1945C10.0265 40.0599 9.86263 40.0165 9.74974 40.0013C9.51744 39.972 9.39908 40.1772 9.28076 40.3487L9.42949 40.2499Z" fill="#FFC445"/>
<path fill-rule="evenodd" clip-rule="evenodd" d="M7.80071 61.4854C7.7743 61.5157 7.75429 61.551 7.74198 61.5893C7.72966 61.6275 7.72527 61.6679 7.72905 61.7079C7.90707 61.8262 8.4509 61.7014 8.41508 61.43C8.39771 61.2943 8.2338 61.2509 8.1209 61.2368C7.8886 61.2075 7.7703 61.4115 7.65198 61.5841L7.80071 61.4854Z" fill="#FFC445"/>
<path fill-rule="evenodd" clip-rule="evenodd" d="M49.349 95.7598C49.223 96.2569 49.1166 96.5403 49.5031 96.8876C49.8025 97.1328 50.1801 97.2619 50.5669 97.2513C51.1313 97.2155 52.0714 96.7639 51.8695 96.0474C51.7685 95.6805 51.1943 95.2409 50.8339 95.1595C50.0947 94.9923 49.3598 95.585 49.3446 96.3536L49.349 95.7598Z" fill="#FFC445"/>
<path style="mix-blend-mode:screen" fill-rule="evenodd" clip-rule="evenodd" d="M30.4759 83.9131C26.4226 80.5212 23.0991 76.3429 20.7062 71.6304C19.1794 68.62 18.0543 65.4223 17.3596 62.1191C17.3537 62.1089 17.3514 62.0971 17.353 62.0855C16.8009 59.4395 16.5222 56.7437 16.5215 54.0407C16.5215 43.7051 20.6273 33.7929 27.9356 26.4846C35.244 19.1763 45.1562 15.0705 55.4917 15.0705C56.3438 15.0705 57.1819 15.0976 58.0199 15.1508C60.617 15.3177 63.1908 15.7457 65.7021 16.4285C62.5965 15.4105 59.3743 14.7905 56.1127 14.5831C55.2735 14.5288 54.4355 14.5017 53.5834 14.5017C48.4653 14.5001 43.397 15.507 38.6683 17.4649C33.9395 19.4228 29.6428 22.2933 26.0238 25.9123C22.4048 29.5313 19.5343 33.828 17.5764 38.5568C15.6185 43.2856 14.6116 48.3538 14.6132 53.4719C14.6139 56.1749 14.8925 58.8706 15.4447 61.5167C15.443 61.5283 15.4453 61.5401 15.4512 61.5503C16.1472 64.8556 17.2742 68.0552 18.8033 71.0671C21.2782 75.9401 24.7467 80.2404 28.9852 83.6909C33.2238 87.1414 38.1383 89.6654 43.4121 91.1003C38.6794 89.5553 34.2877 87.1153 30.4759 83.9131Z" fill="url(#paint26_radial_1_3988)"/>
<defs>
<radialGradient id="paint0_radial_1_3988" cx="0" cy="0" r="1" gradientUnits="userSpaceOnUse" gradientTransform="translate(50.2856 50.2857) scale(50.2856 50.2857)">
<stop offset="0.01" stop-color="#009BFF"/>
<stop offset="1"/>
</radialGradient>
<radialGradient id="paint1_radial_1_3988" cx="0" cy="0" r="1" gradientUnits="userSpaceOnUse" gradientTransform="translate(45.9981 49.5083) scale(42.0911)">
<stop offset="0.01" stop-color="#009BFF"/>
<stop offset="1"/>
</radialGradient>
<radialGradient id="paint2_radial_1_3988" cx="0" cy="0" r="1" gradientUnits="userSpaceOnUse" gradientTransform="translate(50.2853 50.2877) scale(42.8368 42.8368)">
<stop offset="0.01" stop-color="#0092FF"/>
<stop offset="0.13" stop-color="#0090FB"/>
<stop offset="0.26" stop-color="#0089EF"/>
<stop offset="0.38" stop-color="#007DDB"/>
<stop offset="0.51" stop-color="#006DBF"/>
<stop offset="0.63" stop-color="#00599B"/>
<stop offset="0.76" stop-color="#003F6E"/>
<stop offset="0.88" stop-color="#00223B"/>
<stop offset="1"/>
</radialGradient>
<radialGradient id="paint3_radial_1_3988" cx="0" cy="0" r="1" gradientUnits="userSpaceOnUse" gradientTransform="translate(30.4514 34.8839) scale(67.7853 67.7853)">
<stop stop-color="#4F8CFF"/>
<stop offset="0.15" stop-color="#4A85F8"/>
<stop offset="0.36" stop-color="#3E72E6"/>
<stop offset="0.61" stop-color="#2952C8"/>
<stop offset="0.9" stop-color="#0C279F"/>
<stop offset="1" stop-color="#00158E"/>
</radialGradient>
<radialGradient id="paint4_radial_1_3988" cx="0" cy="0" r="1" gradientUnits="userSpaceOnUse" gradientTransform="translate(32.6669 37.2575) scale(61.3352 61.3352)">
<stop offset="0.01" stop-color="#FF7263"/>
<stop offset="0.21" stop-color="#FC6F63"/>
<stop offset="0.37" stop-color="#F46562"/>
<stop offset="0.51" stop-color="#E55560"/>
<stop offset="0.64" stop-color="#D03D5D"/>
<stop offset="0.77" stop-color="#B6205A"/>
<stop offset="0.88" stop-color="#9A0057"/>
<stop offset="0.99" stop-color="#9A00AE"/>
</radialGradient>
<radialGradient id="paint5_radial_1_3988" cx="0" cy="0" r="1" gradientUnits="userSpaceOnUse" gradientTransform="translate(70.2309 40.9639) scale(23.0369 23.0369)">
<stop stop-color="#0088E8"/>
<stop offset="0.19" stop-color="#1696EE"/>
<stop offset="0.53" stop-color="#35AAF7"/>
<stop offset="0.81" stop-color="#48B7FD"/>
<stop offset="1" stop-color="#4FBBFF"/>
</radialGradient>
<linearGradient id="paint6_linear_1_3988" x1="21.1357" y1="38.5228" x2="36.1116" y2="38.5228" gradientUnits="userSpaceOnUse">
<stop offset="0.01" stop-color="#A131A4"/>
<stop offset="1" stop-color="#FFC0B3"/>
</linearGradient>
<linearGradient id="paint7_linear_1_3988" x1="51.9" y1="92.0907" x2="51.9" y2="80.7003" gradientUnits="userSpaceOnUse">
<stop stop-color="#4FBBFF"/>
<stop offset="0.19" stop-color="#48B7FD"/>
<stop offset="0.47" stop-color="#35AAF7"/>
<stop offset="0.81" stop-color="#1696EE"/>
<stop offset="1" stop-color="#0088E8"/>
</linearGradient>
<linearGradient id="paint8_linear_1_3988" x1="24.1746" y1="51.8487" x2="24.1746" y2="29.8159" gradientUnits="userSpaceOnUse">
<stop stop-color="#4FBBFF"/>
<stop offset="0.19" stop-color="#48B7FD"/>
<stop offset="0.47" stop-color="#35AAF7"/>
<stop offset="0.81" stop-color="#1696EE"/>
<stop offset="1" stop-color="#0088E8"/>
</linearGradient>
<linearGradient id="paint9_linear_1_3988" x1="54.1007" y1="65.7073" x2="64.6421" y2="65.7073" gradientUnits="userSpaceOnUse">
<stop stop-color="#0088E8"/>
<stop offset="0.03" stop-color="#0B8EE9"/>
<stop offset="0.24" stop-color="#4FB0F0"/>
<stop offset="0.43" stop-color="#87CCF5"/>
<stop offset="0.61" stop-color="#B3E2F9"/>
<stop offset="0.77" stop-color="#D3F2FC"/>
<stop offset="0.91" stop-color="#E6FCFE"/>
<stop offset="1" stop-color="#EDFFFF"/>
</linearGradient>
<linearGradient id="paint10_linear_1_3988" x1="32.1979" y1="73.5419" x2="26.7248" y2="76.5272" gradientUnits="userSpaceOnUse">
<stop stop-color="#0088E8"/>
<stop offset="0.03" stop-color="#0B8EE9"/>
<stop offset="0.24" stop-color="#4FB0F0"/>
<stop offset="0.43" stop-color="#87CCF5"/>
<stop offset="0.61" stop-color="#B3E2F9"/>
<stop offset="0.77" stop-color="#D3F2FC"/>
<stop offset="0.91" stop-color="#E6FCFE"/>
<stop offset="1" stop-color="#EDFFFF"/>
</linearGradient>
<linearGradient id="paint11_linear_1_3988" x1="61.6697" y1="44.0068" x2="87.2804" y2="44.0068" gradientUnits="userSpaceOnUse">
<stop offset="0.01" stop-color="#A131A4"/>
<stop offset="1" stop-color="#FFC0B3"/>
</linearGradient>
<linearGradient id="paint12_linear_1_3988" x1="56.2863" y1="23.9351" x2="71.4195" y2="23.9351" gradientUnits="userSpaceOnUse">
<stop offset="0.01" stop-color="#A131A4"/>
<stop offset="1" stop-color="#FFC0B3"/>
</linearGradient>
<linearGradient id="paint13_linear_1_3988" x1="19.1153" y1="56.8772" x2="27.8733" y2="56.8772" gradientUnits="userSpaceOnUse">
<stop offset="0.01" stop-color="#A131A4"/>
<stop offset="1" stop-color="#FFC0B3"/>
</linearGradient>
<linearGradient id="paint14_linear_1_3988" x1="52.2882" y1="63.9344" x2="64.0867" y2="63.9344" gradientUnits="userSpaceOnUse">
<stop offset="0.01" stop-color="#A131A4"/>
<stop offset="1" stop-color="white"/>
</linearGradient>
<linearGradient id="paint15_linear_1_3988" x1="32.8845" y1="79.9318" x2="70.0125" y2="79.9318" gradientUnits="userSpaceOnUse">
<stop offset="0.01" stop-color="#A131A4"/>
<stop offset="1" stop-color="#FFC0B3"/>
</linearGradient>
<linearGradient id="paint16_linear_1_3988" x1="19.3864" y1="67.372" x2="19.3864" y2="52.8423" gradientUnits="userSpaceOnUse">
<stop stop-color="#4FBBFF"/>
<stop offset="0.19" stop-color="#48B7FD"/>
<stop offset="0.47" stop-color="#35AAF7"/>
<stop offset="0.81" stop-color="#1696EE"/>
<stop offset="1" stop-color="#0088E8"/>
</linearGradient>
<radialGradient id="paint17_radial_1_3988" cx="0" cy="0" r="1" gradientUnits="userSpaceOnUse" gradientTransform="translate(28.1586 35.4195) scale(72.4736 66.5974)">
<stop offset="0.01" stop-color="#B1FFFF"/>
<stop offset="0.29" stop-color="#B1FDFF"/>
<stop offset="0.44" stop-color="#AFF5FF"/>
<stop offset="0.55" stop-color="#ACE8FF"/>
<stop offset="0.62" stop-color="#A9DBFF"/>
<stop offset="0.65" stop-color="#A2D7FE"/>
<stop offset="0.7" stop-color="#8FCAFC"/>
<stop offset="0.76" stop-color="#6FB5F9"/>
<stop offset="0.82" stop-color="#4399F4"/>
<stop offset="0.89" stop-color="#0C75EE"/>
<stop offset="0.91" stop-color="#006DED"/>
</radialGradient>
<radialGradient id="paint18_radial_1_3988" cx="0" cy="0" r="1" gradientUnits="userSpaceOnUse" gradientTransform="translate(42.3284 38.4515) rotate(-34.8) scale(19.9192 16.6988)">
<stop stop-color="#FF7700"/>
<stop offset="0.17" stop-color="#C55C00"/>
<stop offset="0.4" stop-color="#803C00"/>
<stop offset="0.6" stop-color="#492200"/>
<stop offset="0.78" stop-color="#210F00"/>
<stop offset="0.92" stop-color="#090400"/>
<stop offset="1"/>
</radialGradient>
<radialGradient id="paint19_radial_1_3988" cx="0" cy="0" r="1" gradientUnits="userSpaceOnUse" gradientTransform="translate(64.8058 19.7509) scale(22.6385 22.6385)">
<stop stop-color="#0088E8"/>
<stop offset="0.14" stop-color="#1C93ED"/>
<stop offset="0.4" stop-color="#4BA6F4"/>
<stop offset="0.64" stop-color="#6EB4FA"/>
<stop offset="0.83" stop-color="#83BCFE"/>
<stop offset="0.96" stop-color="#8BBFFF"/>
</radialGradient>
<linearGradient id="paint20_linear_1_3988" x1="69.86" y1="54.7183" x2="103.967" y2="26.0996" gradientUnits="userSpaceOnUse">
<stop stop-color="#FF3D00"/>
<stop offset="1"/>
</linearGradient>
<linearGradient id="paint21_linear_1_3988" x1="52.818" y1="106.865" x2="52.818" y2="79.6601" gradientUnits="userSpaceOnUse">
<stop/>
<stop offset="1" stop-color="#FF3D00"/>
</linearGradient>
<linearGradient id="paint22_linear_1_3988" x1="14.5445" y1="42.513" x2="33.108" y2="40.889" gradientUnits="userSpaceOnUse">
<stop/>
<stop offset="1" stop-color="#FF3D00"/>
</linearGradient>
<linearGradient id="paint23_linear_1_3988" x1="1.29089" y1="62.0368" x2="26.0799" y2="59.869" gradientUnits="userSpaceOnUse">
<stop/>
<stop offset="1" stop-color="#FF3D00"/>
</linearGradient>
<linearGradient id="paint24_linear_1_3988" x1="69.3447" y1="29.2079" x2="81.6296" y2="16.9241" gradientUnits="userSpaceOnUse">
<stop stop-color="#FF3D00"/>
<stop offset="1"/>
</linearGradient>
<linearGradient id="paint25_linear_1_3988" x1="93.088" y1="90.3056" x2="81.017" y2="73.0665" gradientUnits="userSpaceOnUse">
<stop/>
<stop offset="1" stop-color="#FF3D00"/>
</linearGradient>
<radialGradient id="paint26_radial_1_3988" cx="0" cy="0" r="1" gradientUnits="userSpaceOnUse" gradientTransform="translate(25.1069 26.9515) scale(51.2963 51.2963)">
<stop stop-color="#FFFFD9"/>
<stop offset="1"/>
</radialGradient>
</defs>
</svg>
